<svg width="328" height="686" viewBox="0 0 328 686" fill="none" xmlns="http://www.w3.org/2000/svg">
<rect width="328" height="686" fill="white"/>
<rect x="66.5" y="56.5" width="120" height="132" rx="5.5" stroke="black" stroke-opacity="0.3"/>
<path d="M100.032 73.168H105.012V80.176H100.032V73.168ZM104.028 73.96H101.004V79.372H104.028V73.96ZM106.944 72.076H107.94V82.936H106.944V72.076ZM107.712 76.408H109.716V77.248H107.712V76.408ZM118.523 72.076H119.519V82.948H118.523V72.076ZM113.795 72.916C114.331 72.916 114.803 73.072 115.211 73.384C115.627 73.688 115.951 74.124 116.183 74.692C116.423 75.26 116.543 75.928 116.543 76.696C116.543 77.464 116.423 78.132 116.183 78.7C115.951 79.268 115.627 79.708 115.211 80.02C114.803 80.332 114.331 80.488 113.795 80.488C113.259 80.488 112.783 80.332 112.367 80.02C111.951 79.708 111.623 79.268 111.383 78.7C111.151 78.132 111.035 77.464 111.035 76.696C111.035 75.928 111.151 75.26 111.383 74.692C111.623 74.124 111.951 73.688 112.367 73.384C112.783 73.072 113.259 72.916 113.795 72.916ZM113.795 73.804C113.435 73.804 113.119 73.924 112.847 74.164C112.583 74.396 112.375 74.732 112.223 75.172C112.071 75.604 111.995 76.112 111.995 76.696C111.995 77.28 112.071 77.792 112.223 78.232C112.375 78.664 112.583 79 112.847 79.24C113.119 79.48 113.435 79.6 113.795 79.6C114.147 79.6 114.455 79.48 114.719 79.24C114.991 79 115.203 78.664 115.355 78.232C115.507 77.792 115.583 77.28 115.583 76.696C115.583 76.112 115.507 75.604 115.355 75.172C115.203 74.732 114.991 74.396 114.719 74.164C114.455 73.924 114.147 73.804 113.795 73.804ZM122.854 73.18H129.73V73.996H122.854V73.18ZM121.678 80.596H131.482V81.424H121.678V80.596ZM129.31 73.18H130.282V74.512C130.282 75.04 130.274 75.572 130.258 76.108C130.25 76.636 130.214 77.2 130.15 77.8C130.086 78.392 129.978 79.06 129.826 79.804L128.83 79.708C128.99 79.012 129.102 78.372 129.166 77.788C129.238 77.196 129.278 76.632 129.286 76.096C129.302 75.56 129.31 75.032 129.31 74.512V73.18ZM129.55 76.18V76.936L122.698 77.296L122.554 76.48L129.55 76.18ZM136.157 73.288H139.061V74.104H136.157V73.288ZM135.401 80.488H145.205V81.316H135.401V80.488ZM138.737 73.288H139.721V73.708C139.721 74.02 139.709 74.432 139.685 74.944C139.669 75.456 139.609 76.072 139.505 76.792C139.409 77.512 139.237 78.356 138.989 79.324L137.993 79.168C138.249 78.272 138.425 77.476 138.521 76.78C138.625 76.076 138.685 75.468 138.701 74.956C138.725 74.444 138.737 74.028 138.737 73.708V73.288ZM140.501 73.288H143.429V74.104H140.501V73.288ZM143.105 73.288H144.089V74.104C144.089 74.496 144.081 74.94 144.065 75.436C144.057 75.932 144.021 76.5 143.957 77.14C143.893 77.772 143.781 78.496 143.621 79.312L142.613 79.204C142.861 78.044 143.005 77.052 143.045 76.228C143.085 75.396 143.105 74.688 143.105 74.104V73.288ZM154.348 72.076H155.344V82.936H154.348V72.076ZM151.168 73.252H152.152C152.152 74.036 152.056 74.792 151.864 75.52C151.68 76.248 151.388 76.94 150.988 77.596C150.588 78.244 150.068 78.848 149.428 79.408C148.788 79.968 148.012 80.468 147.1 80.908L146.572 80.104C147.62 79.6 148.484 79.012 149.164 78.34C149.844 77.668 150.348 76.92 150.676 76.096C151.004 75.264 151.168 74.368 151.168 73.408V73.252ZM147.076 73.252H151.588V74.056H147.076V73.252Z" fill="#111827"/>
<path d="M104.208 92.204H105.18C105.18 92.988 105.104 93.756 104.952 94.508C104.8 95.252 104.54 95.964 104.172 96.644C103.804 97.316 103.3 97.948 102.66 98.54C102.02 99.132 101.216 99.668 100.248 100.148L99.696 99.38C100.56 98.956 101.28 98.488 101.856 97.976C102.432 97.464 102.892 96.912 103.236 96.32C103.58 95.728 103.828 95.096 103.98 94.424C104.132 93.752 104.208 93.048 104.208 92.312V92.204ZM100.296 92.204H104.808V93.02H100.296V92.204ZM104.064 94.892V95.672L99.9 96.068L99.744 95.192L104.064 94.892ZM106.944 91.076H107.94V101.924H106.944V91.076ZM107.676 95.48H109.668V96.308H107.676V95.48ZM111.023 92.336H115.163V99.02H111.023V92.336ZM114.227 93.128H111.959V98.228H114.227V93.128ZM118.907 91.076H119.867V101.936H118.907V91.076ZM114.671 95.168H117.167V95.984H114.671V95.168ZM116.747 91.304H117.695V101.384H116.747V91.304ZM129.034 91.076H130.018V101.948H129.034V91.076ZM129.79 95.384H131.794V96.224H129.79V95.384ZM122.122 98.492H122.986C123.658 98.492 124.274 98.484 124.834 98.468C125.402 98.444 125.95 98.408 126.478 98.36C127.006 98.304 127.542 98.224 128.086 98.12L128.182 98.936C127.622 99.04 127.074 99.12 126.538 99.176C126.01 99.232 125.458 99.272 124.882 99.296C124.306 99.32 123.674 99.332 122.986 99.332H122.122V98.492ZM122.098 92.084H126.994V95.984H123.106V98.828H122.122V95.156H126.01V92.9H122.098V92.084ZM136.157 92.288H139.061V93.104H136.157V92.288ZM135.401 99.488H145.205V100.316H135.401V99.488ZM138.737 92.288H139.721V92.708C139.721 93.02 139.709 93.432 139.685 93.944C139.669 94.456 139.609 95.072 139.505 95.792C139.409 96.512 139.237 97.356 138.989 98.324L137.993 98.168C138.249 97.272 138.425 96.476 138.521 95.78C138.625 95.076 138.685 94.468 138.701 93.956C138.725 93.444 138.737 93.028 138.737 92.708V92.288ZM140.501 92.288H143.429V93.104H140.501V92.288ZM143.105 92.288H144.089V93.104C144.089 93.496 144.081 93.94 144.065 94.436C144.057 94.932 144.021 95.5 143.957 96.14C143.893 96.772 143.781 97.496 143.621 98.312L142.613 98.204C142.861 97.044 143.005 96.052 143.045 95.228C143.085 94.396 143.105 93.688 143.105 93.104V92.288ZM154.348 91.076H155.344V101.936H154.348V91.076ZM151.168 92.252H152.152C152.152 93.036 152.056 93.792 151.864 94.52C151.68 95.248 151.388 95.94 150.988 96.596C150.588 97.244 150.068 97.848 149.428 98.408C148.788 98.968 148.012 99.468 147.1 99.908L146.572 99.104C147.62 98.6 148.484 98.012 149.164 97.34C149.844 96.668 150.348 95.92 150.676 95.096C151.004 94.264 151.168 93.368 151.168 92.408V92.252ZM147.076 92.252H151.588V93.056H147.076V92.252Z" fill="#111827"/>
<path d="M107.496 110.076H108.492V115.692H107.496V110.076ZM101.472 116.244H108.492V118.86H102.468V120.348H101.508V118.104H107.508V117.036H101.472V116.244ZM101.508 120.012H108.864V120.816H101.508V120.012ZM102.42 110.388H103.248V111.216C103.248 111.888 103.12 112.516 102.864 113.1C102.608 113.684 102.248 114.192 101.784 114.624C101.32 115.048 100.784 115.372 100.176 115.596L99.672 114.804C100.08 114.66 100.452 114.468 100.788 114.228C101.124 113.988 101.412 113.712 101.652 113.4C101.9 113.08 102.088 112.736 102.216 112.368C102.352 112 102.42 111.616 102.42 111.216V110.388ZM102.6 110.388H103.428V111.216C103.428 111.592 103.492 111.956 103.62 112.308C103.756 112.66 103.944 112.984 104.184 113.28C104.432 113.576 104.724 113.84 105.06 114.072C105.396 114.296 105.764 114.476 106.164 114.612L105.672 115.392C105.216 115.232 104.8 115.02 104.424 114.756C104.048 114.484 103.724 114.168 103.452 113.808C103.18 113.44 102.968 113.04 102.816 112.608C102.672 112.168 102.6 111.704 102.6 111.216V110.388ZM113.495 111.012H114.323V112.956C114.323 113.58 114.243 114.188 114.083 114.78C113.931 115.364 113.711 115.912 113.423 116.424C113.143 116.928 112.811 117.376 112.427 117.768C112.051 118.152 111.639 118.456 111.191 118.68L110.579 117.852C110.987 117.668 111.367 117.404 111.719 117.06C112.071 116.716 112.379 116.328 112.643 115.896C112.907 115.456 113.115 114.984 113.267 114.48C113.419 113.976 113.495 113.468 113.495 112.956V111.012ZM113.663 111.012H114.491V112.956C114.491 113.452 114.563 113.94 114.707 114.42C114.859 114.9 115.067 115.356 115.331 115.788C115.603 116.212 115.911 116.588 116.255 116.916C116.607 117.236 116.983 117.488 117.383 117.672L116.783 118.464C116.343 118.256 115.935 117.964 115.559 117.588C115.183 117.212 114.851 116.78 114.563 116.292C114.283 115.804 114.063 115.276 113.903 114.708C113.743 114.14 113.663 113.556 113.663 112.956V111.012ZM118.523 110.076H119.519V120.948H118.523V110.076ZM129.094 110.076H130.102V118.008H129.094V110.076ZM129.79 113.364H131.698V114.204H129.79V113.364ZM126.13 110.916H127.186C127.186 111.852 126.978 112.7 126.562 113.46C126.154 114.22 125.57 114.88 124.81 115.44C124.05 116 123.15 116.444 122.11 116.772L121.69 115.968C122.602 115.68 123.39 115.308 124.054 114.852C124.718 114.396 125.23 113.872 125.59 113.28C125.95 112.688 126.13 112.048 126.13 111.36V110.916ZM122.134 110.916H126.646V111.744H122.134V110.916ZM123.334 119.88H130.57V120.696H123.334V119.88ZM123.334 117.204H124.33V120.204H123.334V117.204ZM136.577 111.132H143.453V111.948H136.577V111.132ZM135.401 118.632H145.205V119.46H135.401V118.632ZM143.045 111.132H144.017V112.164C144.017 112.604 144.009 113.072 143.993 113.568C143.985 114.064 143.949 114.608 143.885 115.2C143.829 115.784 143.725 116.448 143.573 117.192L142.589 117.084C142.813 116.028 142.945 115.104 142.985 114.312C143.025 113.52 143.045 112.804 143.045 112.164V111.132ZM143.273 113.736V114.492L136.421 114.888L136.265 114.024L143.273 113.736ZM139.217 115.824H140.201V118.932H139.217V115.824ZM147.688 115.284H155.14V116.1H147.688V115.284ZM146.44 118.632H156.28V119.46H146.44V118.632ZM147.688 111.084H155.032V111.9H148.672V115.644H147.688V111.084ZM160.163 118.728H170.003V119.556H160.163V118.728ZM164.567 116.124H165.551V118.968H164.567V116.124ZM161.315 110.844H162.311V112.776H167.831V110.844H168.815V116.4H161.315V110.844ZM162.311 113.592V115.584H167.831V113.592H162.311ZM179.11 110.076H180.106V120.936H179.11V110.076ZM175.93 111.252H176.914C176.914 112.036 176.818 112.792 176.626 113.52C176.442 114.248 176.15 114.94 175.75 115.596C175.35 116.244 174.83 116.848 174.19 117.408C173.55 117.968 172.774 118.468 171.862 118.908L171.334 118.104C172.382 117.6 173.246 117.012 173.926 116.34C174.606 115.668 175.11 114.92 175.438 114.096C175.766 113.264 175.93 112.368 175.93 111.408V111.252ZM171.838 111.252H176.35V112.056H171.838V111.252Z" fill="#111827"/>
<path d="M67 132.5H186" stroke="black" stroke-opacity="0.3"/>
<path d="M104.568 145.892C105.304 145.892 105.936 145.972 106.464 146.132C107 146.292 107.412 146.52 107.7 146.816C107.988 147.112 108.132 147.472 108.132 147.896C108.132 148.32 107.988 148.684 107.7 148.988C107.412 149.292 107 149.524 106.464 149.684C105.936 149.844 105.304 149.924 104.568 149.924C103.832 149.924 103.196 149.844 102.66 149.684C102.124 149.524 101.712 149.292 101.424 148.988C101.136 148.684 100.992 148.32 100.992 147.896C100.992 147.472 101.136 147.112 101.424 146.816C101.712 146.52 102.124 146.292 102.66 146.132C103.196 145.972 103.832 145.892 104.568 145.892ZM104.568 146.684C104.032 146.684 103.568 146.732 103.176 146.828C102.792 146.924 102.496 147.064 102.288 147.248C102.08 147.424 101.976 147.64 101.976 147.896C101.976 148.16 102.08 148.384 102.288 148.568C102.496 148.752 102.792 148.892 103.176 148.988C103.568 149.084 104.032 149.132 104.568 149.132C105.104 149.132 105.564 149.084 105.948 148.988C106.332 148.892 106.628 148.752 106.836 148.568C107.044 148.384 107.148 148.16 107.148 147.896C107.148 147.64 107.044 147.424 106.836 147.248C106.628 147.064 106.332 146.924 105.948 146.828C105.564 146.732 105.104 146.684 104.568 146.684ZM107.028 139.076H108.024V145.592H107.028V139.076ZM107.748 141.8H109.62V142.64H107.748V141.8ZM100.044 139.76H101.028V141.392H104.088V139.76H105.072V144.764H100.044V139.76ZM101.028 142.184V143.96H104.088V142.184H101.028ZM113.315 140.24H114.131V141.116C114.131 141.788 114.003 142.408 113.747 142.976C113.499 143.544 113.147 144.04 112.691 144.464C112.243 144.888 111.711 145.212 111.095 145.436L110.591 144.644C111.135 144.452 111.611 144.18 112.019 143.828C112.427 143.468 112.743 143.056 112.967 142.592C113.199 142.128 113.315 141.636 113.315 141.116V140.24ZM113.495 140.24H114.311V141.116C114.311 141.588 114.419 142.036 114.635 142.46C114.851 142.884 115.155 143.256 115.547 143.576C115.939 143.896 116.399 144.148 116.927 144.332L116.459 145.112C115.851 144.904 115.327 144.604 114.887 144.212C114.447 143.82 114.103 143.36 113.855 142.832C113.615 142.296 113.495 141.724 113.495 141.116V140.24ZM110.891 139.88H116.699V140.696H110.891V139.88ZM118.067 139.076H119.063V145.616H118.067V139.076ZM118.787 141.836H120.659V142.664H118.787V141.836ZM115.607 145.916C116.343 145.916 116.975 145.996 117.503 146.156C118.039 146.308 118.451 146.532 118.739 146.828C119.027 147.124 119.171 147.484 119.171 147.908C119.171 148.332 119.027 148.692 118.739 148.988C118.451 149.284 118.039 149.512 117.503 149.672C116.975 149.832 116.343 149.912 115.607 149.912C114.871 149.912 114.235 149.832 113.699 149.672C113.163 149.512 112.751 149.284 112.463 148.988C112.175 148.692 112.031 148.332 112.031 147.908C112.031 147.484 112.175 147.124 112.463 146.828C112.751 146.532 113.163 146.308 113.699 146.156C114.235 145.996 114.871 145.916 115.607 145.916ZM115.607 146.708C115.071 146.708 114.607 146.756 114.215 146.852C113.831 146.948 113.535 147.084 113.327 147.26C113.119 147.436 113.015 147.652 113.015 147.908C113.015 148.164 113.119 148.384 113.327 148.568C113.535 148.744 113.831 148.88 114.215 148.976C114.607 149.072 115.071 149.12 115.607 149.12C116.143 149.12 116.603 149.072 116.987 148.976C117.371 148.88 117.667 148.744 117.875 148.568C118.083 148.384 118.187 148.164 118.187 147.908C118.187 147.652 118.083 147.436 117.875 147.26C117.667 147.084 117.371 146.948 116.987 146.852C116.603 146.756 116.143 146.708 115.607 146.708ZM126.306 145.856H133.29V149.792H126.306V145.856ZM132.318 146.66H127.278V148.976H132.318V146.66ZM124.998 139.724H125.982V144.236H124.998V139.724ZM124.998 143.792H125.826C126.402 143.792 126.954 143.78 127.482 143.756C128.01 143.732 128.53 143.688 129.042 143.624C129.562 143.56 130.09 143.472 130.626 143.36L130.746 144.212C130.202 144.316 129.662 144.4 129.126 144.464C128.598 144.528 128.062 144.576 127.518 144.608C126.982 144.632 126.418 144.644 125.826 144.644H124.998V143.792ZM132.294 139.076H133.29V145.328H132.294V139.076ZM129.222 141.116H132.534V141.932H129.222V141.116ZM143.309 139.076H144.305V149.936H143.309V139.076ZM140.129 140.252H141.113C141.113 141.036 141.017 141.792 140.825 142.52C140.641 143.248 140.349 143.94 139.949 144.596C139.549 145.244 139.029 145.848 138.389 146.408C137.749 146.968 136.973 147.468 136.061 147.908L135.533 147.104C136.581 146.6 137.445 146.012 138.125 145.34C138.805 144.668 139.309 143.92 139.637 143.096C139.965 142.264 140.129 141.368 140.129 140.408V140.252ZM136.037 140.252H140.549V141.056H136.037V140.252ZM154.348 139.076H155.344V149.936H154.348V139.076ZM151.168 140.252H152.152C152.152 141.036 152.056 141.792 151.864 142.52C151.68 143.248 151.388 143.94 150.988 144.596C150.588 145.244 150.068 145.848 149.428 146.408C148.788 146.968 148.012 147.468 147.1 147.908L146.572 147.104C147.62 146.6 148.484 146.012 149.164 145.34C149.844 144.668 150.348 143.92 150.676 143.096C151.004 142.264 151.168 141.368 151.168 140.408V140.252ZM147.076 140.252H151.588V141.056H147.076V140.252Z" fill="#111827"/>
<path d="M107.028 158.076H108.024V164.568H107.028V158.076ZM107.748 160.884H109.62V161.712H107.748V160.884ZM104.028 158.88H105.084C105.084 159.8 104.88 160.636 104.472 161.388C104.064 162.14 103.48 162.788 102.72 163.332C101.968 163.876 101.068 164.3 100.02 164.604L99.612 163.8C100.532 163.528 101.32 163.172 101.976 162.732C102.632 162.292 103.136 161.784 103.488 161.208C103.848 160.632 104.028 160.004 104.028 159.324V158.88ZM100.08 158.88H104.592V159.696H100.08V158.88ZM104.616 164.7C105.336 164.7 105.96 164.784 106.488 164.952C107.016 165.12 107.424 165.364 107.712 165.684C108 165.996 108.144 166.372 108.144 166.812C108.144 167.244 108 167.616 107.712 167.928C107.424 168.24 107.016 168.48 106.488 168.648C105.96 168.824 105.336 168.912 104.616 168.912C103.904 168.912 103.28 168.824 102.744 168.648C102.216 168.48 101.804 168.24 101.508 167.928C101.22 167.616 101.076 167.244 101.076 166.812C101.076 166.372 101.22 165.996 101.508 165.684C101.804 165.364 102.216 165.12 102.744 164.952C103.28 164.784 103.904 164.7 104.616 164.7ZM104.616 165.492C104.104 165.492 103.656 165.548 103.272 165.66C102.888 165.764 102.588 165.916 102.372 166.116C102.164 166.308 102.06 166.54 102.06 166.812C102.06 167.076 102.164 167.308 102.372 167.508C102.588 167.7 102.888 167.852 103.272 167.964C103.656 168.068 104.104 168.12 104.616 168.12C105.144 168.12 105.596 168.068 105.972 167.964C106.348 167.852 106.64 167.7 106.848 167.508C107.064 167.308 107.172 167.076 107.172 166.812C107.172 166.54 107.064 166.308 106.848 166.116C106.64 165.916 106.348 165.764 105.972 165.66C105.596 165.548 105.144 165.492 104.616 165.492ZM113.759 163.824H114.755V166.128H113.759V163.824ZM111.515 163.296H117.155V164.1H111.515V163.296ZM111.515 159.06H117.107V159.864H112.511V163.596H111.515V159.06ZM112.211 161.16H116.879V161.94H112.211V161.16ZM118.487 158.076H119.483V168.948H118.487V158.076ZM110.831 166.764L110.699 165.924C111.355 165.924 112.079 165.92 112.871 165.912C113.671 165.896 114.491 165.864 115.331 165.816C116.179 165.76 116.995 165.672 117.779 165.552L117.863 166.284C117.047 166.436 116.219 166.548 115.379 166.62C114.547 166.684 113.743 166.724 112.967 166.74C112.191 166.748 111.479 166.756 110.831 166.764ZM129.034 158.076H130.018V168.936H129.034V158.076ZM129.79 162.54H131.794V163.38H129.79V162.54ZM121.618 159.816H128.014V160.632H121.618V159.816ZM124.87 161.52C125.382 161.52 125.834 161.628 126.226 161.844C126.626 162.06 126.938 162.356 127.162 162.732C127.394 163.1 127.51 163.528 127.51 164.016C127.51 164.504 127.394 164.936 127.162 165.312C126.938 165.688 126.626 165.984 126.226 166.2C125.834 166.408 125.382 166.512 124.87 166.512C124.358 166.512 123.902 166.408 123.502 166.2C123.11 165.984 122.798 165.688 122.566 165.312C122.334 164.936 122.218 164.504 122.218 164.016C122.218 163.528 122.334 163.1 122.566 162.732C122.798 162.356 123.11 162.06 123.502 161.844C123.902 161.628 124.358 161.52 124.87 161.52ZM124.87 162.348C124.542 162.348 124.25 162.42 123.994 162.564C123.738 162.708 123.534 162.904 123.382 163.152C123.238 163.4 123.166 163.688 123.166 164.016C123.166 164.344 123.238 164.636 123.382 164.892C123.534 165.14 123.738 165.336 123.994 165.48C124.25 165.616 124.542 165.684 124.87 165.684C125.19 165.684 125.478 165.616 125.734 165.48C125.99 165.336 126.19 165.14 126.334 164.892C126.486 164.636 126.562 164.344 126.562 164.016C126.562 163.688 126.486 163.4 126.334 163.152C126.19 162.904 125.99 162.708 125.734 162.564C125.478 162.42 125.19 162.348 124.87 162.348ZM124.354 158.208H125.35V160.176H124.354V158.208ZM140.625 158.076H141.621V168.936H140.625V158.076ZM137.445 159.252H138.429C138.429 160.036 138.333 160.792 138.141 161.52C137.957 162.248 137.665 162.94 137.265 163.596C136.865 164.244 136.345 164.848 135.705 165.408C135.065 165.968 134.289 166.468 133.377 166.908L132.849 166.104C133.897 165.6 134.761 165.012 135.441 164.34C136.121 163.668 136.625 162.92 136.953 162.096C137.281 161.264 137.445 160.368 137.445 159.408V159.252ZM133.353 159.252H137.865V160.056H133.353V159.252Z" fill="#EF4444"/>
<path d="M82.2 72.2668C82.2 71.8268 82.56 71.4668 83 71.4668C83.44 71.4668 83.8 71.8268 83.8 72.2668L83.7933 74.8735L85 76.0668V72.3335C85 71.2268 84.1067 70.3335 83 70.3335C81.9733 70.3335 81.14 71.1068 81.0267 72.1002L82.2 73.2735V72.2668ZM87.6667 76.3335H86.5333C86.5333 76.7202 86.4667 77.0868 86.3533 77.4268L87.2 78.2735C87.4933 77.6868 87.6667 77.0268 87.6667 76.3335ZM77.94 70.9068L77 71.8468L81 75.8468V76.3335C81 77.4402 81.8933 78.3335 83 78.3335C83.1533 78.3335 83.2933 78.3135 83.4333 78.2802L84.54 79.3868C84.0667 79.6068 83.54 79.7335 83 79.7335C81.16 79.7335 79.4667 78.3335 79.4667 76.3335H78.3333C78.3333 78.6068 80.1467 80.4868 82.3333 80.8135V83.0002H83.6667V80.8135C84.2665 80.7243 84.8437 80.5206 85.3667 80.2135L88.1667 83.0135L89.1067 82.0735L77.94 70.9068Z" fill="black"/>
<path fill-rule="evenodd" clip-rule="evenodd" d="M84.2012 91.2002H78.6012C77.9647 91.2002 77.3542 91.4531 76.9041 91.9031C76.454 92.3532 76.2012 92.9637 76.2012 93.6002V98.4002C76.2012 99.0367 76.454 99.6472 76.9041 100.097C77.3542 100.547 77.9647 100.8 78.6012 100.8H84.2012C84.8377 100.8 85.4481 100.547 85.8982 100.097C86.3483 99.6472 86.6012 99.0367 86.6012 98.4002V93.6002C86.6012 92.9637 86.3483 92.3532 85.8982 91.9031C85.4481 91.4531 84.8377 91.2002 84.2012 91.2002ZM77.8012 93.6002C77.8012 93.388 77.8855 93.1845 78.0355 93.0345C78.1855 92.8845 78.389 92.8002 78.6012 92.8002H84.2012C84.4133 92.8002 84.6168 92.8845 84.7669 93.0345C84.9169 93.1845 85.0012 93.388 85.0012 93.6002V98.4002C85.0012 98.6124 84.9169 98.8159 84.7669 98.9659C84.6168 99.1159 84.4133 99.2002 84.2012 99.2002H78.6012C78.389 99.2002 78.1855 99.1159 78.0355 98.9659C77.8855 98.8159 77.8012 98.6124 77.8012 98.4002V93.6002Z" fill="black"/>
<path fill-rule="evenodd" clip-rule="evenodd" d="M88.5476 92.141L85.7732 94.0458C85.6672 94.1185 85.5803 94.2158 85.5199 94.3293C85.4594 94.4428 85.4272 94.5692 85.426 94.6978L85.4004 97.2698C85.3992 97.4009 85.4302 97.5304 85.4907 97.6467C85.5513 97.7631 85.6395 97.8627 85.7476 97.937L88.5476 99.8594C88.6677 99.9418 88.8081 99.9899 88.9535 99.9985C89.099 100.007 89.244 99.9757 89.3729 99.9078C89.5019 99.84 89.6098 99.7382 89.6852 99.6135C89.7605 99.4888 89.8004 99.3459 89.8004 99.2002V92.8002C89.8004 92.6545 89.7605 92.5115 89.6852 92.3868C89.6098 92.2621 89.5019 92.1604 89.3729 92.0925C89.244 92.0247 89.099 91.9933 88.9535 92.0019C88.8081 92.0104 88.6677 92.0585 88.5476 92.141ZM88.2004 97.6802L87.0044 96.8594L87.022 95.129L88.2004 94.3202V97.6802Z" fill="black"/>
<path d="M76.0351 90.1658C75.8894 90.0149 75.8088 89.8129 75.8106 89.6031C75.8124 89.3933 75.8965 89.1927 76.0449 89.0444C76.1932 88.896 76.3938 88.8119 76.6036 88.8101C76.8134 88.8083 77.0154 88.8889 77.1663 89.0346L89.9663 101.835C90.112 101.986 90.1927 102.188 90.1909 102.397C90.189 102.607 90.1049 102.808 89.9566 102.956C89.8082 103.104 89.6076 103.189 89.3978 103.19C89.1881 103.192 88.986 103.112 88.8351 102.966L76.0351 90.1658Z" fill="black"/>
<path d="M77.3576 107C76.486 107 75.7773 107.785 75.7773 108.75V116.625C75.7773 117.59 76.486 118.375 77.3576 118.375H81.7033L81.4391 119.25H79.728C79.2909 119.25 78.9378 119.641 78.9378 120.125C78.9378 120.609 79.2909 121 79.728 121H86.0489C86.486 121 86.8391 120.609 86.8391 120.125C86.8391 119.641 86.486 119.25 86.0489 119.25H84.3378L84.0736 118.375H88.4193C89.2909 118.375 89.9996 117.59 89.9996 116.625V108.75C89.9996 107.785 89.2909 107 88.4193 107H77.3576ZM88.4193 108.75V116.625H77.3576V108.75H88.4193Z" fill="black"/>
<path d="M81.6667 161.667C83.1394 161.667 84.3333 160.473 84.3333 159C84.3333 157.527 83.1394 156.333 81.6667 156.333C80.1939 156.333 79 157.527 79 159C79 160.473 80.1939 161.667 81.6667 161.667Z" stroke="black" stroke-width="1.5"/>
<path d="M89.0007 161.667H86.334M86.9993 167C87.0002 166.891 87.0007 166.78 87.0007 166.667C87.0007 165.01 84.6127 163.667 81.6673 163.667C78.722 163.667 76.334 165.01 76.334 166.667C76.334 168.324 76.334 169.667 81.6673 169.667C83.1547 169.667 84.2273 169.562 85.0007 169.376" stroke="black" stroke-width="1.5" stroke-linecap="round"/>
<path d="M81.9993 148C80.4549 147.689 79.1798 146.98 78.174 145.873C77.1682 144.766 76.6656 143.538 76.666 142.187V138.933L81.9993 137.333L87.3327 138.933V142.187C87.3327 143.538 86.83 144.767 85.8247 145.874C84.8194 146.981 83.5442 147.689 81.9993 148ZM81.9993 146.88C83.1549 146.587 84.1105 146 84.866 145.12C85.6216 144.24 85.9993 143.262 85.9993 142.187V139.667L81.9993 138.467L77.9993 139.667V142.187C77.9993 143.262 78.3771 144.24 79.1327 145.12C79.8882 146 80.8438 146.587 81.9993 146.88Z" fill="black"/>
<rect x="66.5" y="245.5" width="130" height="60" rx="5.5" stroke="black" stroke-opacity="0.3"/>
<path d="M99.6 269.704H109.44V270.544H99.6V269.704ZM100.464 262.168H108.516V262.984H100.464V262.168ZM100.488 266.74H108.492V267.556H100.488V266.74ZM102.144 262.912H103.14V266.836H102.144V262.912ZM105.84 262.912H106.824V266.836H105.84V262.912ZM110.639 269.764H120.479V270.592H110.639V269.764ZM115.043 267.448H116.027V270.112H115.043V267.448ZM111.839 261.88H119.255V265.168H112.847V267.34H111.863V264.376H118.271V262.696H111.839V261.88ZM111.863 266.92H119.507V267.736H111.863V266.92ZM129.586 261.076H130.582V266.704H129.586V261.076ZM123.514 267.232H130.582V269.836H124.522V271.468H123.538V269.104H129.598V268.024H123.514V267.232ZM123.538 271.012H130.978V271.816H123.538V271.012ZM122.158 261.82H127.99V262.6H122.158V261.82ZM121.978 266.332L121.858 265.516C122.506 265.508 123.21 265.496 123.97 265.48C124.73 265.464 125.498 265.436 126.274 265.396C127.058 265.348 127.802 265.284 128.506 265.204L128.554 265.924C127.842 266.036 127.098 266.12 126.322 266.176C125.546 266.232 124.786 266.272 124.042 266.296C123.306 266.32 122.618 266.332 121.978 266.332ZM123.226 262.18H124.186V265.864H123.226V262.18ZM125.95 262.18H126.922V265.864H125.95V262.18ZM135.401 269.728H145.241V270.556H135.401V269.728ZM139.805 267.124H140.789V269.968H139.805V267.124ZM136.553 261.844H137.549V263.776H143.069V261.844H144.053V267.4H136.553V261.844ZM137.549 264.592V266.584H143.069V264.592H137.549ZM154.348 261.076H155.344V271.936H154.348V261.076ZM151.168 262.252H152.152C152.152 263.036 152.056 263.792 151.864 264.52C151.68 265.248 151.388 265.94 150.988 266.596C150.588 267.244 150.068 267.848 149.428 268.408C148.788 268.968 148.012 269.468 147.1 269.908L146.572 269.104C147.62 268.6 148.484 268.012 149.164 267.34C149.844 266.668 150.348 265.92 150.676 265.096C151.004 264.264 151.168 263.368 151.168 262.408V262.252ZM147.076 262.252H151.588V263.056H147.076V262.252Z" fill="#111827"/>
<path d="M107.496 280.076H108.492V285.692H107.496V280.076ZM101.472 286.244H108.492V288.86H102.468V290.348H101.508V288.104H107.508V287.036H101.472V286.244ZM101.508 290.012H108.864V290.816H101.508V290.012ZM102.42 280.388H103.248V281.216C103.248 281.888 103.12 282.516 102.864 283.1C102.608 283.684 102.248 284.192 101.784 284.624C101.32 285.048 100.784 285.372 100.176 285.596L99.672 284.804C100.08 284.66 100.452 284.468 100.788 284.228C101.124 283.988 101.412 283.712 101.652 283.4C101.9 283.08 102.088 282.736 102.216 282.368C102.352 282 102.42 281.616 102.42 281.216V280.388ZM102.6 280.388H103.428V281.216C103.428 281.592 103.492 281.956 103.62 282.308C103.756 282.66 103.944 282.984 104.184 283.28C104.432 283.576 104.724 283.84 105.06 284.072C105.396 284.296 105.764 284.476 106.164 284.612L105.672 285.392C105.216 285.232 104.8 285.02 104.424 284.756C104.048 284.484 103.724 284.168 103.452 283.808C103.18 283.44 102.968 283.04 102.816 282.608C102.672 282.168 102.6 281.704 102.6 281.216V280.388ZM113.495 281.012H114.323V282.956C114.323 283.58 114.243 284.188 114.083 284.78C113.931 285.364 113.711 285.912 113.423 286.424C113.143 286.928 112.811 287.376 112.427 287.768C112.051 288.152 111.639 288.456 111.191 288.68L110.579 287.852C110.987 287.668 111.367 287.404 111.719 287.06C112.071 286.716 112.379 286.328 112.643 285.896C112.907 285.456 113.115 284.984 113.267 284.48C113.419 283.976 113.495 283.468 113.495 282.956V281.012ZM113.663 281.012H114.491V282.956C114.491 283.452 114.563 283.94 114.707 284.42C114.859 284.9 115.067 285.356 115.331 285.788C115.603 286.212 115.911 286.588 116.255 286.916C116.607 287.236 116.983 287.488 117.383 287.672L116.783 288.464C116.343 288.256 115.935 287.964 115.559 287.588C115.183 287.212 114.851 286.78 114.563 286.292C114.283 285.804 114.063 285.276 113.903 284.708C113.743 284.14 113.663 283.556 113.663 282.956V281.012ZM118.523 280.076H119.519V290.948H118.523V280.076ZM129.094 280.076H130.102V288.008H129.094V280.076ZM129.79 283.364H131.698V284.204H129.79V283.364ZM126.13 280.916H127.186C127.186 281.852 126.978 282.7 126.562 283.46C126.154 284.22 125.57 284.88 124.81 285.44C124.05 286 123.15 286.444 122.11 286.772L121.69 285.968C122.602 285.68 123.39 285.308 124.054 284.852C124.718 284.396 125.23 283.872 125.59 283.28C125.95 282.688 126.13 282.048 126.13 281.36V280.916ZM122.134 280.916H126.646V281.744H122.134V280.916ZM123.334 289.88H130.57V290.696H123.334V289.88ZM123.334 287.204H124.33V290.204H123.334V287.204ZM136.577 281.132H143.453V281.948H136.577V281.132ZM135.401 288.632H145.205V289.46H135.401V288.632ZM143.045 281.132H144.017V282.164C144.017 282.604 144.009 283.072 143.993 283.568C143.985 284.064 143.949 284.608 143.885 285.2C143.829 285.784 143.725 286.448 143.573 287.192L142.589 287.084C142.813 286.028 142.945 285.104 142.985 284.312C143.025 283.52 143.045 282.804 143.045 282.164V281.132ZM143.273 283.736V284.492L136.421 284.888L136.265 284.024L143.273 283.736ZM139.217 285.824H140.201V288.932H139.217V285.824ZM147.688 285.284H155.14V286.1H147.688V285.284ZM146.44 288.632H156.28V289.46H146.44V288.632ZM147.688 281.084H155.032V281.9H148.672V285.644H147.688V281.084ZM160.163 288.728H170.003V289.556H160.163V288.728ZM164.567 286.124H165.551V288.968H164.567V286.124ZM161.315 280.844H162.311V282.776H167.831V280.844H168.815V286.4H161.315V280.844ZM162.311 283.592V285.584H167.831V283.592H162.311ZM179.11 280.076H180.106V290.936H179.11V280.076ZM175.93 281.252H176.914C176.914 282.036 176.818 282.792 176.626 283.52C176.442 284.248 176.15 284.94 175.75 285.596C175.35 286.244 174.83 286.848 174.19 287.408C173.55 287.968 172.774 288.468 171.862 288.908L171.334 288.104C172.382 287.6 173.246 287.012 173.926 286.34C174.606 285.668 175.11 284.92 175.438 284.096C175.766 283.264 175.93 282.368 175.93 281.408V281.252ZM171.838 281.252H176.35V282.056H171.838V281.252Z" fill="#111827"/>
<path d="M78.3576 279C77.486 279 76.7773 279.785 76.7773 280.75V288.625C76.7773 289.59 77.486 290.375 78.3576 290.375H82.7033L82.4391 291.25H80.728C80.2909 291.25 79.9378 291.641 79.9378 292.125C79.9378 292.609 80.2909 293 80.728 293H87.0489C87.486 293 87.8391 292.609 87.8391 292.125C87.8391 291.641 87.486 291.25 87.0489 291.25H85.3378L85.0736 290.375H89.4193C90.2909 290.375 90.9996 289.59 90.9996 288.625V280.75C90.9996 279.785 90.2909 279 89.4193 279H78.3576ZM89.4193 280.75V288.625H78.3576V280.75H89.4193Z" fill="black"/>
<g clip-path="url(#clip0_337_2658)">
<path fill-rule="evenodd" clip-rule="evenodd" d="M83 272.5C84.1411 272.502 85.2623 272.202 86.25 271.63V269.5C86.25 268.903 86.0129 268.331 85.591 267.909C85.169 267.487 84.5967 267.25 84 267.25H82C81.4033 267.25 80.831 267.487 80.409 267.909C79.9871 268.331 79.75 268.903 79.75 269.5V271.63C80.7377 272.202 81.8589 272.502 83 272.5ZM87.75 269.5V270.437C88.6147 269.511 89.1901 268.353 89.4054 267.105C89.6207 265.857 89.4666 264.573 88.962 263.411C88.4574 262.249 87.6243 261.26 86.5651 260.565C85.5059 259.87 84.2667 259.5 83 259.5C81.7333 259.5 80.4941 259.87 79.4349 260.565C78.3757 261.26 77.5426 262.249 77.038 263.411C76.5334 264.573 76.3793 265.857 76.5946 267.105C76.8099 268.353 77.3853 269.511 78.25 270.437V269.5C78.2497 268.727 78.4884 267.972 78.9334 267.34C79.3785 266.708 80.0081 266.229 80.736 265.968C80.3584 265.534 80.1137 265 80.0311 264.43C79.9485 263.861 80.0314 263.279 80.2701 262.756C80.5087 262.232 80.893 261.788 81.377 261.477C81.8611 261.165 82.4245 261 83 261C83.5755 261 84.1389 261.165 84.623 261.477C85.107 261.788 85.4913 262.232 85.7299 262.756C85.9686 263.279 86.0515 263.861 85.9689 264.43C85.8863 265 85.6416 265.534 85.264 265.968C85.9919 266.229 86.6215 266.708 87.0666 267.34C87.5116 267.972 87.7503 268.727 87.75 269.5ZM83 274C85.1217 274 87.1566 273.157 88.6569 271.657C90.1571 270.157 91 268.122 91 266C91 263.878 90.1571 261.843 88.6569 260.343C87.1566 258.843 85.1217 258 83 258C80.8783 258 78.8434 258.843 77.3431 260.343C75.8429 261.843 75 263.878 75 266C75 268.122 75.8429 270.157 77.3431 271.657C78.8434 273.157 80.8783 274 83 274ZM84.5 264C84.5 264.398 84.342 264.779 84.0607 265.061C83.7794 265.342 83.3978 265.5 83 265.5C82.6022 265.5 82.2206 265.342 81.9393 265.061C81.658 264.779 81.5 264.398 81.5 264C81.5 263.602 81.658 263.221 81.9393 262.939C82.2206 262.658 82.6022 262.5 83 262.5C83.3978 262.5 83.7794 262.658 84.0607 262.939C84.342 263.221 84.5 263.602 84.5 264Z" fill="black"/>
</g>
<g clip-path="url(#clip1_337_2658)">
<path d="M98.6 423.704H108.44V424.544H98.6V423.704ZM99.464 416.168H107.516V416.984H99.464V416.168ZM99.488 420.74H107.492V421.556H99.488V420.74ZM101.144 416.912H102.14V420.836H101.144V416.912ZM104.84 416.912H105.824V420.836H104.84V416.912ZM109.639 423.764H119.479V424.592H109.639V423.764ZM114.043 421.448H115.027V424.112H114.043V421.448ZM110.839 415.88H118.255V419.168H111.847V421.34H110.863V418.376H117.271V416.696H110.839V415.88ZM110.863 420.92H118.507V421.736H110.863V420.92ZM128.586 415.076H129.582V420.704H128.586V415.076ZM122.514 421.232H129.582V423.836H123.522V425.468H122.538V423.104H128.598V422.024H122.514V421.232ZM122.538 425.012H129.978V425.816H122.538V425.012ZM121.158 415.82H126.99V416.6H121.158V415.82ZM120.978 420.332L120.858 419.516C121.506 419.508 122.21 419.496 122.97 419.48C123.73 419.464 124.498 419.436 125.274 419.396C126.058 419.348 126.802 419.284 127.506 419.204L127.554 419.924C126.842 420.036 126.098 420.12 125.322 420.176C124.546 420.232 123.786 420.272 123.042 420.296C122.306 420.32 121.618 420.332 120.978 420.332ZM122.226 416.18H123.186V419.864H122.226V416.18ZM124.95 416.18H125.922V419.864H124.95V416.18ZM134.401 423.728H144.241V424.556H134.401V423.728ZM138.805 421.124H139.789V423.968H138.805V421.124ZM135.553 415.844H136.549V417.776H142.069V415.844H143.053V421.4H135.553V415.844ZM136.549 418.592V420.584H142.069V418.592H136.549ZM153.348 415.076H154.344V425.936H153.348V415.076ZM150.168 416.252H151.152C151.152 417.036 151.056 417.792 150.864 418.52C150.68 419.248 150.388 419.94 149.988 420.596C149.588 421.244 149.068 421.848 148.428 422.408C147.788 422.968 147.012 423.468 146.1 423.908L145.572 423.104C146.62 422.6 147.484 422.012 148.164 421.34C148.844 420.668 149.348 419.92 149.676 419.096C150.004 418.264 150.168 417.368 150.168 416.408V416.252ZM146.076 416.252H150.588V417.056H146.076V416.252Z" fill="#111827"/>
<g clip-path="url(#clip2_337_2658)">
<path fill-rule="evenodd" clip-rule="evenodd" d="M84 427.5C85.1411 427.502 86.2623 427.202 87.25 426.63V424.5C87.25 423.903 87.0129 423.331 86.591 422.909C86.169 422.487 85.5967 422.25 85 422.25H83C82.4033 422.25 81.831 422.487 81.409 422.909C80.9871 423.331 80.75 423.903 80.75 424.5V426.63C81.7377 427.202 82.8589 427.502 84 427.5ZM88.75 424.5V425.437C89.6147 424.511 90.1901 423.353 90.4054 422.105C90.6207 420.857 90.4666 419.573 89.962 418.411C89.4574 417.249 88.6243 416.26 87.5651 415.565C86.5059 414.87 85.2667 414.5 84 414.5C82.7333 414.5 81.4941 414.87 80.4349 415.565C79.3757 416.26 78.5426 417.249 78.038 418.411C77.5334 419.573 77.3793 420.857 77.5946 422.105C77.8099 423.353 78.3853 424.511 79.25 425.437V424.5C79.2497 423.727 79.4884 422.972 79.9334 422.34C80.3785 421.708 81.0081 421.229 81.736 420.968C81.3584 420.534 81.1137 420 81.0311 419.43C80.9485 418.861 81.0314 418.279 81.2701 417.756C81.5087 417.232 81.893 416.788 82.377 416.477C82.8611 416.165 83.4245 416 84 416C84.5755 416 85.1389 416.165 85.623 416.477C86.107 416.788 86.4913 417.232 86.7299 417.756C86.9686 418.279 87.0515 418.861 86.9689 419.43C86.8863 420 86.6416 420.534 86.264 420.968C86.9919 421.229 87.6215 421.708 88.0666 422.34C88.5116 422.972 88.7503 423.727 88.75 424.5ZM84 429C86.1217 429 88.1566 428.157 89.6569 426.657C91.1571 425.157 92 423.122 92 421C92 418.878 91.1571 416.843 89.6569 415.343C88.1566 413.843 86.1217 413 84 413C81.8783 413 79.8434 413.843 78.3431 415.343C76.8429 416.843 76 418.878 76 421C76 423.122 76.8429 425.157 78.3431 426.657C79.8434 428.157 81.8783 429 84 429ZM85.5 419C85.5 419.398 85.342 419.779 85.0607 420.061C84.7794 420.342 84.3978 420.5 84 420.5C83.6022 420.5 83.2206 420.342 82.9393 420.061C82.658 419.779 82.5 419.398 82.5 419C82.5 418.602 82.658 418.221 82.9393 417.939C83.2206 417.658 83.6022 417.5 84 417.5C84.3978 417.5 84.7794 417.658 85.0607 417.939C85.342 418.221 85.5 418.602 85.5 419Z" fill="black"/>
</g>
</g>
<rect x="67.5" y="406.5" width="120" height="28" rx="5.5" stroke="black" stroke-opacity="0.3"/>
<path d="M60.0009 34.092C59.7369 34.092 59.4889 34.024 59.2569 33.888C59.0329 33.752 58.8489 33.564 58.7049 33.324C58.5689 33.076 58.5009 32.792 58.5009 32.472C58.5009 32.152 58.5689 31.872 58.7049 31.632C58.8489 31.384 59.0329 31.192 59.2569 31.056C59.4889 30.92 59.7369 30.852 60.0009 30.852C60.2649 30.852 60.5089 30.92 60.7329 31.056C60.9649 31.192 61.1489 31.384 61.2849 31.632C61.4289 31.872 61.5009 32.152 61.5009 32.472C61.5009 32.792 61.4289 33.076 61.2849 33.324C61.1489 33.564 60.9649 33.752 60.7329 33.888C60.5089 34.024 60.2649 34.092 60.0009 34.092ZM74.568 32.892C75.304 32.892 75.936 32.972 76.464 33.132C77 33.292 77.412 33.52 77.7 33.816C77.988 34.112 78.132 34.472 78.132 34.896C78.132 35.32 77.988 35.684 77.7 35.988C77.412 36.292 77 36.524 76.464 36.684C75.936 36.844 75.304 36.924 74.568 36.924C73.832 36.924 73.196 36.844 72.66 36.684C72.124 36.524 71.712 36.292 71.424 35.988C71.136 35.684 70.992 35.32 70.992 34.896C70.992 34.472 71.136 34.112 71.424 33.816C71.712 33.52 72.124 33.292 72.66 33.132C73.196 32.972 73.832 32.892 74.568 32.892ZM74.568 33.684C74.032 33.684 73.568 33.732 73.176 33.828C72.792 33.924 72.496 34.064 72.288 34.248C72.08 34.424 71.976 34.64 71.976 34.896C71.976 35.16 72.08 35.384 72.288 35.568C72.496 35.752 72.792 35.892 73.176 35.988C73.568 36.084 74.032 36.132 74.568 36.132C75.104 36.132 75.564 36.084 75.948 35.988C76.332 35.892 76.628 35.752 76.836 35.568C77.044 35.384 77.148 35.16 77.148 34.896C77.148 34.64 77.044 34.424 76.836 34.248C76.628 34.064 76.332 33.924 75.948 33.828C75.564 33.732 75.104 33.684 74.568 33.684ZM77.028 26.076H78.024V32.592H77.028V26.076ZM77.748 28.8H79.62V29.64H77.748V28.8ZM70.044 26.76H71.028V28.392H74.088V26.76H75.072V31.764H70.044V26.76ZM71.028 29.184V30.96H74.088V29.184H71.028ZM83.3151 27.24H84.1311V28.116C84.1311 28.788 84.0031 29.408 83.7471 29.976C83.4991 30.544 83.1471 31.04 82.6911 31.464C82.2431 31.888 81.7111 32.212 81.0951 32.436L80.5911 31.644C81.1351 31.452 81.6111 31.18 82.0191 30.828C82.4271 30.468 82.7431 30.056 82.9671 29.592C83.1991 29.128 83.3151 28.636 83.3151 28.116V27.24ZM83.4951 27.24H84.3111V28.116C84.3111 28.588 84.4191 29.036 84.6351 29.46C84.8511 29.884 85.1551 30.256 85.5471 30.576C85.9391 30.896 86.3991 31.148 86.9271 31.332L86.4591 32.112C85.8511 31.904 85.3271 31.604 84.8871 31.212C84.4471 30.82 84.1031 30.36 83.8551 29.832C83.6151 29.296 83.4951 28.724 83.4951 28.116V27.24ZM80.8911 26.88H86.6991V27.696H80.8911V26.88ZM88.0671 26.076H89.0631V32.616H88.0671V26.076ZM88.7871 28.836H90.6591V29.664H88.7871V28.836ZM85.6071 32.916C86.3431 32.916 86.9751 32.996 87.5031 33.156C88.0391 33.308 88.4511 33.532 88.7391 33.828C89.0271 34.124 89.1711 34.484 89.1711 34.908C89.1711 35.332 89.0271 35.692 88.7391 35.988C88.4511 36.284 88.0391 36.512 87.5031 36.672C86.9751 36.832 86.3431 36.912 85.6071 36.912C84.8711 36.912 84.2351 36.832 83.6991 36.672C83.1631 36.512 82.7511 36.284 82.4631 35.988C82.1751 35.692 82.0311 35.332 82.0311 34.908C82.0311 34.484 82.1751 34.124 82.4631 33.828C82.7511 33.532 83.1631 33.308 83.6991 33.156C84.2351 32.996 84.8711 32.916 85.6071 32.916ZM85.6071 33.708C85.0711 33.708 84.6071 33.756 84.2151 33.852C83.8311 33.948 83.5351 34.084 83.3271 34.26C83.1191 34.436 83.0151 34.652 83.0151 34.908C83.0151 35.164 83.1191 35.384 83.3271 35.568C83.5351 35.744 83.8311 35.88 84.2151 35.976C84.6071 36.072 85.0711 36.12 85.6071 36.12C86.1431 36.12 86.6031 36.072 86.9871 35.976C87.3711 35.88 87.6671 35.744 87.8751 35.568C88.0831 35.384 88.1871 35.164 88.1871 34.908C88.1871 34.652 88.0831 34.436 87.8751 34.26C87.6671 34.084 87.3711 33.948 86.9871 33.852C86.6031 33.756 86.1431 33.708 85.6071 33.708ZM102.258 26.076H103.254V31.908H102.258V26.076ZM96.2697 32.448H97.2417V33.756H102.27V32.448H103.254V36.792H96.2697V32.448ZM97.2417 34.548V35.976H102.27V34.548H97.2417ZM97.4337 26.592C97.9857 26.592 98.4737 26.7 98.8977 26.916C99.3217 27.124 99.6537 27.416 99.8937 27.792C100.142 28.168 100.266 28.604 100.266 29.1C100.266 29.588 100.142 30.024 99.8937 30.408C99.6537 30.784 99.3217 31.076 98.8977 31.284C98.4737 31.492 97.9857 31.596 97.4337 31.596C96.8897 31.596 96.4017 31.492 95.9697 31.284C95.5457 31.076 95.2097 30.784 94.9617 30.408C94.7217 30.024 94.6017 29.588 94.6017 29.1C94.6017 28.604 94.7217 28.168 94.9617 27.792C95.2097 27.416 95.5457 27.124 95.9697 26.916C96.4017 26.7 96.8897 26.592 97.4337 26.592ZM97.4337 27.432C97.0737 27.432 96.7537 27.504 96.4737 27.648C96.1937 27.784 95.9737 27.98 95.8137 28.236C95.6537 28.484 95.5737 28.772 95.5737 29.1C95.5737 29.42 95.6537 29.708 95.8137 29.964C95.9737 30.212 96.1937 30.408 96.4737 30.552C96.7537 30.696 97.0737 30.768 97.4337 30.768C97.7937 30.768 98.1137 30.696 98.3937 30.552C98.6737 30.408 98.8937 30.212 99.0537 29.964C99.2137 29.708 99.2937 29.42 99.2937 29.1C99.2937 28.772 99.2137 28.484 99.0537 28.236C98.8937 27.98 98.6737 27.784 98.3937 27.648C98.1137 27.504 97.7937 27.432 97.4337 27.432ZM108.077 27.24H108.893V28.116C108.893 28.788 108.765 29.408 108.509 29.976C108.261 30.544 107.909 31.04 107.453 31.464C107.005 31.888 106.473 32.212 105.857 32.436L105.353 31.644C105.897 31.452 106.373 31.18 106.781 30.828C107.189 30.468 107.505 30.056 107.729 29.592C107.961 29.128 108.077 28.636 108.077 28.116V27.24ZM108.257 27.24H109.073V28.116C109.073 28.588 109.181 29.036 109.397 29.46C109.613 29.884 109.917 30.256 110.309 30.576C110.701 30.896 111.161 31.148 111.689 31.332L111.221 32.112C110.613 31.904 110.089 31.604 109.649 31.212C109.209 30.82 108.865 30.36 108.617 29.832C108.377 29.296 108.257 28.724 108.257 28.116V27.24ZM105.653 26.88H111.461V27.696H105.653V26.88ZM112.829 26.076H113.825V32.616H112.829V26.076ZM113.549 28.836H115.421V29.664H113.549V28.836ZM110.369 32.916C111.105 32.916 111.737 32.996 112.265 33.156C112.801 33.308 113.213 33.532 113.501 33.828C113.789 34.124 113.933 34.484 113.933 34.908C113.933 35.332 113.789 35.692 113.501 35.988C113.213 36.284 112.801 36.512 112.265 36.672C111.737 36.832 111.105 36.912 110.369 36.912C109.633 36.912 108.997 36.832 108.461 36.672C107.925 36.512 107.513 36.284 107.225 35.988C106.937 35.692 106.793 35.332 106.793 34.908C106.793 34.484 106.937 34.124 107.225 33.828C107.513 33.532 107.925 33.308 108.461 33.156C108.997 32.996 109.633 32.916 110.369 32.916ZM110.369 33.708C109.833 33.708 109.369 33.756 108.977 33.852C108.593 33.948 108.297 34.084 108.089 34.26C107.881 34.436 107.777 34.652 107.777 34.908C107.777 35.164 107.881 35.384 108.089 35.568C108.297 35.744 108.593 35.88 108.977 35.976C109.369 36.072 109.833 36.12 110.369 36.12C110.905 36.12 111.365 36.072 111.749 35.976C112.133 35.88 112.429 35.744 112.637 35.568C112.845 35.384 112.949 35.164 112.949 34.908C112.949 34.652 112.845 34.436 112.637 34.26C112.429 34.084 112.133 33.948 111.749 33.852C111.365 33.756 110.905 33.708 110.369 33.708ZM120.844 30.3H122.884V31.116H120.844V30.3ZM124.708 26.076H125.668V36.936H124.708V26.076ZM122.548 26.304H123.496V36.384H122.548V26.304ZM118.876 26.988C119.348 26.988 119.756 27.14 120.1 27.444C120.452 27.748 120.724 28.184 120.916 28.752C121.108 29.32 121.204 29.988 121.204 30.756C121.204 31.532 121.108 32.204 120.916 32.772C120.724 33.34 120.452 33.78 120.1 34.092C119.756 34.396 119.348 34.548 118.876 34.548C118.42 34.548 118.016 34.396 117.664 34.092C117.32 33.78 117.052 33.34 116.86 32.772C116.668 32.204 116.572 31.532 116.572 30.756C116.572 29.988 116.668 29.32 116.86 28.752C117.052 28.184 117.32 27.748 117.664 27.444C118.016 27.14 118.42 26.988 118.876 26.988ZM118.876 27.912C118.596 27.912 118.352 28.028 118.144 28.26C117.936 28.492 117.776 28.82 117.664 29.244C117.552 29.668 117.496 30.172 117.496 30.756C117.496 31.34 117.552 31.848 117.664 32.28C117.776 32.704 117.936 33.032 118.144 33.264C118.352 33.496 118.596 33.612 118.876 33.612C119.164 33.612 119.412 33.496 119.62 33.264C119.836 33.032 120 32.704 120.112 32.28C120.224 31.848 120.28 31.34 120.28 30.756C120.28 30.172 120.224 29.668 120.112 29.244C120 28.82 119.836 28.492 119.62 28.26C119.412 28.028 119.164 27.912 118.876 27.912ZM132.903 29.76H135.915V30.576H132.903V29.76ZM130.275 27.012H131.091V28.956C131.091 29.556 131.015 30.148 130.863 30.732C130.719 31.316 130.511 31.86 130.239 32.364C129.967 32.868 129.647 33.316 129.279 33.708C128.919 34.1 128.523 34.412 128.091 34.644L127.467 33.84C127.867 33.648 128.235 33.38 128.571 33.036C128.915 32.692 129.215 32.3 129.471 31.86C129.727 31.412 129.923 30.944 130.059 30.456C130.203 29.96 130.275 29.46 130.275 28.956V27.012ZM130.479 27.012H131.283V28.956C131.283 29.444 131.351 29.928 131.487 30.408C131.631 30.888 131.831 31.34 132.087 31.764C132.343 32.18 132.639 32.552 132.975 32.88C133.319 33.208 133.687 33.464 134.079 33.648L133.479 34.452C133.047 34.228 132.647 33.928 132.279 33.552C131.911 33.176 131.591 32.744 131.319 32.256C131.055 31.768 130.847 31.244 130.695 30.684C130.551 30.124 130.479 29.548 130.479 28.956V27.012ZM135.423 26.076H136.407V36.948H135.423V26.076ZM143.914 27.864H144.718V28.332C144.718 28.948 144.59 29.52 144.334 30.048C144.086 30.576 143.734 31.032 143.278 31.416C142.822 31.8 142.29 32.092 141.682 32.292L141.202 31.512C141.738 31.344 142.21 31.104 142.618 30.792C143.026 30.472 143.342 30.1 143.566 29.676C143.798 29.252 143.914 28.804 143.914 28.332V27.864ZM144.082 27.864H144.898V28.332C144.898 28.764 145.006 29.18 145.222 29.58C145.446 29.972 145.758 30.32 146.158 30.624C146.558 30.92 147.022 31.148 147.55 31.308L147.082 32.088C146.482 31.896 145.954 31.616 145.498 31.248C145.05 30.88 144.702 30.448 144.454 29.952C144.206 29.448 144.082 28.908 144.082 28.332V27.864ZM141.502 27.348H147.298V28.152H141.502V27.348ZM143.914 26.028H144.91V27.672H143.914V26.028ZM148.63 26.076H149.626V32.496H148.63V26.076ZM149.35 28.824H151.222V29.652H149.35V28.824ZM142.81 33.012H149.626V36.792H142.81V33.012ZM148.642 33.804H143.782V35.976H148.642V33.804ZM157.125 28.5H160.413V29.316H157.125V28.5ZM157.125 31.932H160.413V32.748H157.125V31.932ZM155.133 26.916C155.661 26.916 156.129 27.072 156.537 27.384C156.945 27.688 157.261 28.124 157.485 28.692C157.717 29.26 157.833 29.928 157.833 30.696C157.833 31.464 157.717 32.132 157.485 32.7C157.261 33.268 156.945 33.708 156.537 34.02C156.129 34.332 155.661 34.488 155.133 34.488C154.613 34.488 154.145 34.332 153.729 34.02C153.321 33.708 153.001 33.268 152.769 32.7C152.545 32.132 152.433 31.464 152.433 30.696C152.433 29.928 152.545 29.26 152.769 28.692C153.001 28.124 153.321 27.688 153.729 27.384C154.145 27.072 154.613 26.916 155.133 26.916ZM155.133 27.804C154.789 27.804 154.485 27.924 154.221 28.164C153.957 28.396 153.749 28.732 153.597 29.172C153.453 29.604 153.381 30.112 153.381 30.696C153.381 31.28 153.453 31.792 153.597 32.232C153.749 32.664 153.957 33 154.221 33.24C154.485 33.48 154.789 33.6 155.133 33.6C155.485 33.6 155.793 33.48 156.057 33.24C156.321 33 156.525 32.664 156.669 32.232C156.821 31.792 156.897 31.28 156.897 30.696C156.897 30.112 156.821 29.604 156.669 29.172C156.525 28.732 156.321 28.396 156.057 28.164C155.793 27.924 155.485 27.804 155.133 27.804ZM160.185 26.076H161.169V36.948H160.185V26.076ZM165.956 27.636H166.76V29.388C166.76 29.956 166.68 30.52 166.52 31.08C166.36 31.632 166.136 32.156 165.848 32.652C165.568 33.14 165.244 33.576 164.876 33.96C164.508 34.336 164.112 34.632 163.688 34.848L163.1 34.056C163.492 33.864 163.856 33.604 164.192 33.276C164.536 32.94 164.84 32.56 165.104 32.136C165.368 31.704 165.576 31.256 165.728 30.792C165.88 30.32 165.956 29.852 165.956 29.388V27.636ZM166.148 27.636H166.94V29.388C166.94 29.82 167.008 30.256 167.144 30.696C167.288 31.136 167.488 31.556 167.744 31.956C168 32.356 168.296 32.716 168.632 33.036C168.976 33.348 169.34 33.6 169.724 33.792L169.16 34.584C168.736 34.368 168.34 34.08 167.972 33.72C167.604 33.352 167.284 32.936 167.012 32.472C166.74 32.008 166.528 31.512 166.376 30.984C166.224 30.456 166.148 29.924 166.148 29.388V27.636ZM163.484 27.192H169.34V28.02H163.484V27.192ZM170.624 26.076H171.62V36.936H170.624V26.076ZM171.392 30.456H173.396V31.296H171.392V30.456ZM174.319 30.612H184.135V31.416H174.319V30.612ZM175.627 28.932H182.959V29.736H175.627V28.932ZM175.627 26.436H182.851V27.24H176.611V29.568H175.627V26.436ZM175.507 32.364H182.863V34.908H176.503V36.276H175.531V34.164H181.891V33.144H175.507V32.364ZM175.531 36.012H183.187V36.804H175.531V36.012ZM188.029 32.292H197.869V33.12H188.029V32.292ZM192.433 32.796H193.417V36.936H192.433V32.796ZM192.925 26.508C193.685 26.508 194.349 26.608 194.917 26.808C195.485 27 195.929 27.276 196.249 27.636C196.569 27.988 196.729 28.408 196.729 28.896C196.729 29.376 196.569 29.796 196.249 30.156C195.929 30.516 195.485 30.792 194.917 30.984C194.349 31.176 193.685 31.272 192.925 31.272C192.181 31.272 191.521 31.176 190.945 30.984C190.377 30.792 189.933 30.516 189.613 30.156C189.293 29.796 189.133 29.376 189.133 28.896C189.133 28.408 189.293 27.988 189.613 27.636C189.933 27.276 190.377 27 190.945 26.808C191.521 26.608 192.181 26.508 192.925 26.508ZM192.925 27.312C192.381 27.312 191.897 27.376 191.473 27.504C191.057 27.632 190.733 27.816 190.501 28.056C190.269 28.288 190.153 28.564 190.153 28.884C190.153 29.212 190.269 29.496 190.501 29.736C190.733 29.968 191.057 30.148 191.473 30.276C191.897 30.404 192.381 30.468 192.925 30.468C193.485 30.468 193.973 30.404 194.389 30.276C194.805 30.148 195.129 29.968 195.361 29.736C195.593 29.496 195.709 29.212 195.709 28.884C195.709 28.564 195.593 28.288 195.361 28.056C195.129 27.816 194.805 27.632 194.389 27.504C193.973 27.376 193.485 27.312 192.925 27.312ZM200.328 26.592H207.312V27.396H200.328V26.592ZM206.664 26.592H207.648V27.42C207.648 27.876 207.632 28.38 207.6 28.932C207.576 29.476 207.484 30.108 207.324 30.828L206.352 30.72C206.512 30.016 206.604 29.404 206.628 28.884C206.652 28.356 206.664 27.868 206.664 27.42V26.592ZM206.952 28.416V29.124L200.196 29.424L200.064 28.632L206.952 28.416ZM199.092 30.516H208.872V31.32H199.092V30.516ZM200.232 32.34H207.72V34.872H201.24V36.336H200.256V34.128H206.736V33.12H200.232V32.34ZM200.256 36H208.104V36.792H200.256V36ZM218.016 26.088H219.012V32.712H218.016V26.088ZM211.764 33.3H219.012V36.936H218.016V34.128H211.764V33.3ZM210.684 31.284H211.56C212.216 31.284 212.824 31.276 213.384 31.26C213.952 31.244 214.504 31.212 215.04 31.164C215.576 31.108 216.132 31.036 216.708 30.948L216.828 31.764C216.228 31.86 215.652 31.932 215.1 31.98C214.556 32.028 213.996 32.064 213.42 32.088C212.852 32.104 212.232 32.112 211.56 32.112H210.684V31.284ZM210.66 26.724H215.58V29.736H211.656V31.692H210.684V28.956H214.608V27.54H210.66V26.724Z" fill="black"/>
<path d="M58.0009 230.092C57.7369 230.092 57.4889 230.024 57.2569 229.888C57.0329 229.752 56.8489 229.564 56.7049 229.324C56.5689 229.076 56.5009 228.792 56.5009 228.472C56.5009 228.152 56.5689 227.872 56.7049 227.632C56.8489 227.384 57.0329 227.192 57.2569 227.056C57.4889 226.92 57.7369 226.852 58.0009 226.852C58.2649 226.852 58.5089 226.92 58.7329 227.056C58.9649 227.192 59.1489 227.384 59.2849 227.632C59.4289 227.872 59.5009 228.152 59.5009 228.472C59.5009 228.792 59.4289 229.076 59.2849 229.324C59.1489 229.564 58.9649 229.752 58.7329 229.888C58.5089 230.024 58.2649 230.092 58.0009 230.092ZM70.648 222.472C71.192 222.472 71.672 222.576 72.088 222.784C72.512 222.984 72.844 223.264 73.084 223.624C73.324 223.984 73.444 224.404 73.444 224.884C73.444 225.356 73.324 225.776 73.084 226.144C72.844 226.504 72.512 226.784 72.088 226.984C71.672 227.184 71.192 227.284 70.648 227.284C70.112 227.284 69.632 227.184 69.208 226.984C68.784 226.784 68.448 226.504 68.2 226.144C67.96 225.776 67.84 225.356 67.84 224.884C67.84 224.404 67.96 223.984 68.2 223.624C68.448 223.264 68.784 222.984 69.208 222.784C69.632 222.576 70.112 222.472 70.648 222.472ZM70.648 223.3C70.296 223.3 69.98 223.368 69.7 223.504C69.428 223.632 69.212 223.816 69.052 224.056C68.892 224.296 68.812 224.572 68.812 224.884C68.812 225.196 68.892 225.472 69.052 225.712C69.212 225.944 69.428 226.128 69.7 226.264C69.98 226.4 70.296 226.468 70.648 226.468C71 226.468 71.312 226.4 71.584 226.264C71.864 226.128 72.084 225.944 72.244 225.712C72.404 225.472 72.484 225.196 72.484 224.884C72.484 224.572 72.404 224.296 72.244 224.056C72.084 223.816 71.864 223.632 71.584 223.504C71.312 223.368 71 223.3 70.648 223.3ZM75.496 222.076H76.492V227.632H75.496V222.076ZM69.472 228.172H76.492V230.8H70.468V232.432H69.508V230.056H75.508V228.964H69.472V228.172ZM69.508 231.988H76.864V232.792H69.508V231.988ZM86.0671 222.088H87.0631V230.056H86.0671V222.088ZM86.7511 225.364H88.6591V226.192H86.7511V225.364ZM80.3071 231.88H87.5431V232.696H80.3071V231.88ZM80.3071 229.288H81.2911V232.06H80.3071V229.288ZM79.0831 222.868H80.0671V224.68H83.1271V222.868H84.1111V228.232H79.0831V222.868ZM80.0671 225.46V227.428H83.1271V225.46H80.0671ZM95.0737 223.864H95.8777V224.332C95.8777 224.948 95.7497 225.52 95.4937 226.048C95.2457 226.576 94.8937 227.032 94.4377 227.416C93.9817 227.8 93.4497 228.092 92.8417 228.292L92.3617 227.512C92.8977 227.344 93.3697 227.104 93.7777 226.792C94.1857 226.472 94.5017 226.1 94.7257 225.676C94.9577 225.252 95.0737 224.804 95.0737 224.332V223.864ZM95.2417 223.864H96.0577V224.332C96.0577 224.764 96.1657 225.18 96.3817 225.58C96.6057 225.972 96.9177 226.32 97.3177 226.624C97.7177 226.92 98.1817 227.148 98.7097 227.308L98.2417 228.088C97.6417 227.896 97.1137 227.616 96.6577 227.248C96.2097 226.88 95.8617 226.448 95.6137 225.952C95.3657 225.448 95.2417 224.908 95.2417 224.332V223.864ZM92.6617 223.348H98.4577V224.152H92.6617V223.348ZM95.0737 222.028H96.0697V223.672H95.0737V222.028ZM99.7897 222.076H100.786V228.496H99.7897V222.076ZM100.51 224.824H102.382V225.652H100.51V224.824ZM93.9697 229.012H100.786V232.792H93.9697V229.012ZM99.8017 229.804H94.9417V231.976H99.8017V229.804ZM108.285 224.5H111.573V225.316H108.285V224.5ZM108.285 227.932H111.573V228.748H108.285V227.932ZM106.293 222.916C106.821 222.916 107.289 223.072 107.697 223.384C108.105 223.688 108.421 224.124 108.645 224.692C108.877 225.26 108.993 225.928 108.993 226.696C108.993 227.464 108.877 228.132 108.645 228.7C108.421 229.268 108.105 229.708 107.697 230.02C107.289 230.332 106.821 230.488 106.293 230.488C105.773 230.488 105.305 230.332 104.889 230.02C104.481 229.708 104.161 229.268 103.929 228.7C103.705 228.132 103.593 227.464 103.593 226.696C103.593 225.928 103.705 225.26 103.929 224.692C104.161 224.124 104.481 223.688 104.889 223.384C105.305 223.072 105.773 222.916 106.293 222.916ZM106.293 223.804C105.949 223.804 105.645 223.924 105.381 224.164C105.117 224.396 104.909 224.732 104.757 225.172C104.613 225.604 104.541 226.112 104.541 226.696C104.541 227.28 104.613 227.792 104.757 228.232C104.909 228.664 105.117 229 105.381 229.24C105.645 229.48 105.949 229.6 106.293 229.6C106.645 229.6 106.953 229.48 107.217 229.24C107.481 229 107.685 228.664 107.829 228.232C107.981 227.792 108.057 227.28 108.057 226.696C108.057 226.112 107.981 225.604 107.829 225.172C107.685 224.732 107.481 224.396 107.217 224.164C106.953 223.924 106.645 223.804 106.293 223.804ZM111.345 222.076H112.329V232.948H111.345V222.076ZM117.116 223.636H117.92V225.388C117.92 225.956 117.84 226.52 117.68 227.08C117.52 227.632 117.296 228.156 117.008 228.652C116.728 229.14 116.404 229.576 116.036 229.96C115.668 230.336 115.272 230.632 114.848 230.848L114.26 230.056C114.652 229.864 115.016 229.604 115.352 229.276C115.696 228.94 116 228.56 116.264 228.136C116.528 227.704 116.736 227.256 116.888 226.792C117.04 226.32 117.116 225.852 117.116 225.388V223.636ZM117.308 223.636H118.1V225.388C118.1 225.82 118.168 226.256 118.304 226.696C118.448 227.136 118.648 227.556 118.904 227.956C119.16 228.356 119.456 228.716 119.792 229.036C120.136 229.348 120.5 229.6 120.884 229.792L120.32 230.584C119.896 230.368 119.5 230.08 119.132 229.72C118.764 229.352 118.444 228.936 118.172 228.472C117.9 228.008 117.688 227.512 117.536 226.984C117.384 226.456 117.308 225.924 117.308 225.388V223.636ZM114.644 223.192H120.5V224.02H114.644V223.192ZM121.784 222.076H122.78V232.936H121.784V222.076ZM122.552 226.456H124.556V227.296H122.552V226.456ZM132.823 222.076H133.819V232.924H132.823V222.076ZM133.555 226.48H135.547V227.308H133.555V226.48ZM130.051 223.24H131.023C131.023 224.272 130.855 225.26 130.519 226.204C130.183 227.14 129.655 228.008 128.935 228.808C128.215 229.6 127.267 230.288 126.091 230.872L125.539 230.104C126.547 229.6 127.383 229.012 128.047 228.34C128.719 227.66 129.219 226.908 129.547 226.084C129.883 225.252 130.051 224.356 130.051 223.396V223.24ZM126.043 223.24H130.555V224.068H126.043V223.24ZM136.818 234.28L136.554 233.632C136.93 233.464 137.226 233.236 137.442 232.948C137.658 232.66 137.762 232.332 137.754 231.964L137.634 230.98L138.174 231.784C138.094 231.872 138.006 231.936 137.91 231.976C137.822 232.008 137.726 232.024 137.622 232.024C137.406 232.024 137.218 231.956 137.058 231.82C136.898 231.684 136.818 231.496 136.818 231.256C136.818 231.016 136.898 230.828 137.058 230.692C137.226 230.556 137.422 230.488 137.646 230.488C137.934 230.488 138.158 230.604 138.318 230.836C138.486 231.06 138.57 231.372 138.57 231.772C138.57 232.348 138.41 232.852 138.09 233.284C137.778 233.716 137.354 234.048 136.818 234.28ZM142.541 227.848H152.345V228.664H142.541V227.848ZM146.945 226.252H147.941V228.268H146.945V226.252ZM143.801 231.88H151.253V232.696H143.801V231.88ZM143.801 229.552H144.797V232.132H143.801V229.552ZM147.437 222.4C148.213 222.4 148.885 222.488 149.453 222.664C150.029 222.832 150.473 223.08 150.785 223.408C151.097 223.728 151.253 224.112 151.253 224.56C151.253 225.016 151.097 225.408 150.785 225.736C150.473 226.056 150.029 226.304 149.453 226.48C148.885 226.648 148.213 226.732 147.437 226.732C146.661 226.732 145.985 226.648 145.409 226.48C144.841 226.304 144.401 226.056 144.089 225.736C143.777 225.408 143.621 225.016 143.621 224.56C143.621 224.112 143.777 223.728 144.089 223.408C144.401 223.08 144.841 222.832 145.409 222.664C145.985 222.488 146.661 222.4 147.437 222.4ZM147.437 223.204C146.877 223.204 146.385 223.26 145.961 223.372C145.545 223.476 145.221 223.632 144.989 223.84C144.757 224.04 144.641 224.28 144.641 224.56C144.641 224.848 144.757 225.092 144.989 225.292C145.221 225.492 145.545 225.648 145.961 225.76C146.385 225.864 146.877 225.916 147.437 225.916C148.013 225.916 148.509 225.864 148.925 225.76C149.341 225.648 149.661 225.492 149.885 225.292C150.117 225.092 150.233 224.848 150.233 224.56C150.233 224.28 150.117 224.04 149.885 223.84C149.661 223.632 149.341 223.476 148.925 223.372C148.509 223.26 148.013 223.204 147.437 223.204ZM160.936 222.076H161.92V232.948H160.936V222.076ZM161.692 226.384H163.696V227.224H161.692V226.384ZM154.024 229.492H154.888C155.56 229.492 156.176 229.484 156.736 229.468C157.304 229.444 157.852 229.408 158.38 229.36C158.908 229.304 159.444 229.224 159.988 229.12L160.084 229.936C159.524 230.04 158.976 230.12 158.44 230.176C157.912 230.232 157.36 230.272 156.784 230.296C156.208 230.32 155.576 230.332 154.888 230.332H154.024V229.492ZM154 223.084H158.896V226.984H155.008V229.828H154.024V226.156H157.912V223.9H154V223.084ZM172.516 222.088H173.512V230.008H172.516V222.088ZM166.54 231.88H173.848V232.696H166.54V231.88ZM166.54 229.204H167.536V232.156H166.54V229.204ZM167.692 222.844C168.236 222.844 168.72 222.956 169.144 223.18C169.568 223.404 169.904 223.72 170.152 224.128C170.4 224.528 170.524 224.988 170.524 225.508C170.524 226.028 170.4 226.492 170.152 226.9C169.904 227.3 169.568 227.616 169.144 227.848C168.72 228.072 168.236 228.184 167.692 228.184C167.156 228.184 166.672 228.072 166.24 227.848C165.816 227.616 165.48 227.3 165.232 226.9C164.984 226.492 164.86 226.028 164.86 225.508C164.86 224.988 164.984 224.528 165.232 224.128C165.48 223.72 165.816 223.404 166.24 223.18C166.672 222.956 167.156 222.844 167.692 222.844ZM167.692 223.708C167.34 223.708 167.024 223.784 166.744 223.936C166.464 224.088 166.24 224.3 166.072 224.572C165.912 224.844 165.832 225.156 165.832 225.508C165.832 225.868 165.912 226.184 166.072 226.456C166.24 226.72 166.464 226.928 166.744 227.08C167.024 227.232 167.34 227.308 167.692 227.308C168.044 227.308 168.36 227.232 168.64 227.08C168.928 226.928 169.152 226.72 169.312 226.456C169.472 226.184 169.552 225.868 169.552 225.508C169.552 225.156 169.472 224.844 169.312 224.572C169.152 224.3 168.928 224.088 168.64 223.936C168.36 223.784 168.044 223.708 167.692 223.708ZM181.054 223.864H181.858V224.332C181.858 224.948 181.73 225.52 181.474 226.048C181.226 226.576 180.874 227.032 180.418 227.416C179.962 227.8 179.43 228.092 178.822 228.292L178.342 227.512C178.878 227.344 179.35 227.104 179.758 226.792C180.166 226.472 180.482 226.1 180.706 225.676C180.938 225.252 181.054 224.804 181.054 224.332V223.864ZM181.222 223.864H182.038V224.332C182.038 224.764 182.146 225.18 182.362 225.58C182.586 225.972 182.898 226.32 183.298 226.624C183.698 226.92 184.162 227.148 184.69 227.308L184.222 228.088C183.622 227.896 183.094 227.616 182.638 227.248C182.19 226.88 181.842 226.448 181.594 225.952C181.346 225.448 181.222 224.908 181.222 224.332V223.864ZM178.642 223.348H184.438V224.152H178.642V223.348ZM181.054 222.028H182.05V223.672H181.054V222.028ZM185.77 222.076H186.766V228.496H185.77V222.076ZM186.49 224.824H188.362V225.652H186.49V224.824ZM179.95 229.012H186.766V232.792H179.95V229.012ZM185.782 229.804H180.922V231.976H185.782V229.804ZM194.265 224.5H197.553V225.316H194.265V224.5ZM194.265 227.932H197.553V228.748H194.265V227.932ZM192.273 222.916C192.801 222.916 193.269 223.072 193.677 223.384C194.085 223.688 194.401 224.124 194.625 224.692C194.857 225.26 194.973 225.928 194.973 226.696C194.973 227.464 194.857 228.132 194.625 228.7C194.401 229.268 194.085 229.708 193.677 230.02C193.269 230.332 192.801 230.488 192.273 230.488C191.753 230.488 191.285 230.332 190.869 230.02C190.461 229.708 190.141 229.268 189.909 228.7C189.685 228.132 189.573 227.464 189.573 226.696C189.573 225.928 189.685 225.26 189.909 224.692C190.141 224.124 190.461 223.688 190.869 223.384C191.285 223.072 191.753 222.916 192.273 222.916ZM192.273 223.804C191.929 223.804 191.625 223.924 191.361 224.164C191.097 224.396 190.889 224.732 190.737 225.172C190.593 225.604 190.521 226.112 190.521 226.696C190.521 227.28 190.593 227.792 190.737 228.232C190.889 228.664 191.097 229 191.361 229.24C191.625 229.48 191.929 229.6 192.273 229.6C192.625 229.6 192.933 229.48 193.197 229.24C193.461 229 193.665 228.664 193.809 228.232C193.961 227.792 194.037 227.28 194.037 226.696C194.037 226.112 193.961 225.604 193.809 225.172C193.665 224.732 193.461 224.396 193.197 224.164C192.933 223.924 192.625 223.804 192.273 223.804ZM197.325 222.076H198.309V232.948H197.325V222.076ZM203.096 223.636H203.9V225.388C203.9 225.956 203.82 226.52 203.66 227.08C203.5 227.632 203.276 228.156 202.988 228.652C202.708 229.14 202.384 229.576 202.016 229.96C201.648 230.336 201.252 230.632 200.828 230.848L200.24 230.056C200.632 229.864 200.996 229.604 201.332 229.276C201.676 228.94 201.98 228.56 202.244 228.136C202.508 227.704 202.716 227.256 202.868 226.792C203.02 226.32 203.096 225.852 203.096 225.388V223.636ZM203.288 223.636H204.08V225.388C204.08 225.82 204.148 226.256 204.284 226.696C204.428 227.136 204.628 227.556 204.884 227.956C205.14 228.356 205.436 228.716 205.772 229.036C206.116 229.348 206.48 229.6 206.864 229.792L206.3 230.584C205.876 230.368 205.48 230.08 205.112 229.72C204.744 229.352 204.424 228.936 204.152 228.472C203.88 228.008 203.668 227.512 203.516 226.984C203.364 226.456 203.288 225.924 203.288 225.388V223.636ZM200.624 223.192H206.48V224.02H200.624V223.192ZM207.764 222.076H208.76V232.936H207.764V222.076ZM208.532 226.456H210.536V227.296H208.532V226.456ZM214.131 228.292H223.971V229.12H214.131V228.292ZM218.535 228.796H219.519V232.936H218.535V228.796ZM219.027 222.508C219.787 222.508 220.451 222.608 221.019 222.808C221.587 223 222.031 223.276 222.351 223.636C222.671 223.988 222.831 224.408 222.831 224.896C222.831 225.376 222.671 225.796 222.351 226.156C222.031 226.516 221.587 226.792 221.019 226.984C220.451 227.176 219.787 227.272 219.027 227.272C218.283 227.272 217.623 227.176 217.047 226.984C216.479 226.792 216.035 226.516 215.715 226.156C215.395 225.796 215.235 225.376 215.235 224.896C215.235 224.408 215.395 223.988 215.715 223.636C216.035 223.276 216.479 223 217.047 222.808C217.623 222.608 218.283 222.508 219.027 222.508ZM219.027 223.312C218.483 223.312 217.999 223.376 217.575 223.504C217.159 223.632 216.835 223.816 216.603 224.056C216.371 224.288 216.255 224.564 216.255 224.884C216.255 225.212 216.371 225.496 216.603 225.736C216.835 225.968 217.159 226.148 217.575 226.276C217.999 226.404 218.483 226.468 219.027 226.468C219.587 226.468 220.075 226.404 220.491 226.276C220.907 226.148 221.231 225.968 221.463 225.736C221.695 225.496 221.811 225.212 221.811 224.884C221.811 224.564 221.695 224.288 221.463 224.056C221.231 223.816 220.907 223.632 220.491 223.504C220.075 223.376 219.587 223.312 219.027 223.312ZM226.43 222.592H233.414V223.396H226.43V222.592ZM232.766 222.592H233.75V223.42C233.75 223.876 233.734 224.38 233.702 224.932C233.678 225.476 233.586 226.108 233.426 226.828L232.454 226.72C232.614 226.016 232.706 225.404 232.73 224.884C232.754 224.356 232.766 223.868 232.766 223.42V222.592ZM233.054 224.416V225.124L226.298 225.424L226.166 224.632L233.054 224.416ZM225.194 226.516H234.974V227.32H225.194V226.516ZM226.334 228.34H233.822V230.872H227.342V232.336H226.358V230.128H232.838V229.12H226.334V228.34ZM226.358 232H234.206V232.792H226.358V232ZM244.117 222.088H245.113V228.712H244.117V222.088ZM237.865 229.3H245.113V232.936H244.117V230.128H237.865V229.3ZM236.785 227.284H237.661C238.317 227.284 238.925 227.276 239.485 227.26C240.053 227.244 240.605 227.212 241.141 227.164C241.677 227.108 242.233 227.036 242.809 226.948L242.929 227.764C242.329 227.86 241.753 227.932 241.201 227.98C240.657 228.028 240.097 228.064 239.521 228.088C238.953 228.104 238.333 228.112 237.661 228.112H236.785V227.284ZM236.761 222.724H241.681V225.736H237.757V227.692H236.785V224.956H240.709V223.54H236.761V222.724Z" fill="black"/>
<path d="M61.0009 384.092C60.7369 384.092 60.4889 384.024 60.2569 383.888C60.0329 383.752 59.8489 383.564 59.7049 383.324C59.5689 383.076 59.5009 382.792 59.5009 382.472C59.5009 382.152 59.5689 381.872 59.7049 381.632C59.8489 381.384 60.0329 381.192 60.2569 381.056C60.4889 380.92 60.7369 380.852 61.0009 380.852C61.2649 380.852 61.5089 380.92 61.7329 381.056C61.9649 381.192 62.1489 381.384 62.2849 381.632C62.4289 381.872 62.5009 382.152 62.5009 382.472C62.5009 382.792 62.4289 383.076 62.2849 383.324C62.1489 383.564 61.9649 383.752 61.7329 383.888C61.5089 384.024 61.2649 384.092 61.0009 384.092ZM73.648 376.472C74.192 376.472 74.672 376.576 75.088 376.784C75.512 376.984 75.844 377.264 76.084 377.624C76.324 377.984 76.444 378.404 76.444 378.884C76.444 379.356 76.324 379.776 76.084 380.144C75.844 380.504 75.512 380.784 75.088 380.984C74.672 381.184 74.192 381.284 73.648 381.284C73.112 381.284 72.632 381.184 72.208 380.984C71.784 380.784 71.448 380.504 71.2 380.144C70.96 379.776 70.84 379.356 70.84 378.884C70.84 378.404 70.96 377.984 71.2 377.624C71.448 377.264 71.784 376.984 72.208 376.784C72.632 376.576 73.112 376.472 73.648 376.472ZM73.648 377.3C73.296 377.3 72.98 377.368 72.7 377.504C72.428 377.632 72.212 377.816 72.052 378.056C71.892 378.296 71.812 378.572 71.812 378.884C71.812 379.196 71.892 379.472 72.052 379.712C72.212 379.944 72.428 380.128 72.7 380.264C72.98 380.4 73.296 380.468 73.648 380.468C74 380.468 74.312 380.4 74.584 380.264C74.864 380.128 75.084 379.944 75.244 379.712C75.404 379.472 75.484 379.196 75.484 378.884C75.484 378.572 75.404 378.296 75.244 378.056C75.084 377.816 74.864 377.632 74.584 377.504C74.312 377.368 74 377.3 73.648 377.3ZM78.496 376.076H79.492V381.632H78.496V376.076ZM72.472 382.172H79.492V384.8H73.468V386.432H72.508V384.056H78.508V382.964H72.472V382.172ZM72.508 385.988H79.864V386.792H72.508V385.988ZM89.0671 376.088H90.0631V384.056H89.0671V376.088ZM89.7511 379.364H91.6591V380.192H89.7511V379.364ZM83.3071 385.88H90.5431V386.696H83.3071V385.88ZM83.3071 383.288H84.2911V386.06H83.3071V383.288ZM82.0831 376.868H83.0671V378.68H86.1271V376.868H87.1111V382.232H82.0831V376.868ZM83.0671 379.46V381.428H86.1271V379.46H83.0671ZM98.0737 377.864H98.8777V378.332C98.8777 378.948 98.7497 379.52 98.4937 380.048C98.2457 380.576 97.8937 381.032 97.4377 381.416C96.9817 381.8 96.4497 382.092 95.8417 382.292L95.3617 381.512C95.8977 381.344 96.3697 381.104 96.7777 380.792C97.1857 380.472 97.5017 380.1 97.7257 379.676C97.9577 379.252 98.0737 378.804 98.0737 378.332V377.864ZM98.2417 377.864H99.0577V378.332C99.0577 378.764 99.1657 379.18 99.3817 379.58C99.6057 379.972 99.9177 380.32 100.318 380.624C100.718 380.92 101.182 381.148 101.71 381.308L101.242 382.088C100.642 381.896 100.114 381.616 99.6577 381.248C99.2097 380.88 98.8617 380.448 98.6137 379.952C98.3657 379.448 98.2417 378.908 98.2417 378.332V377.864ZM95.6617 377.348H101.458V378.152H95.6617V377.348ZM98.0737 376.028H99.0697V377.672H98.0737V376.028ZM102.79 376.076H103.786V382.496H102.79V376.076ZM103.51 378.824H105.382V379.652H103.51V378.824ZM96.9697 383.012H103.786V386.792H96.9697V383.012ZM102.802 383.804H97.9417V385.976H102.802V383.804ZM111.285 378.5H114.573V379.316H111.285V378.5ZM111.285 381.932H114.573V382.748H111.285V381.932ZM109.293 376.916C109.821 376.916 110.289 377.072 110.697 377.384C111.105 377.688 111.421 378.124 111.645 378.692C111.877 379.26 111.993 379.928 111.993 380.696C111.993 381.464 111.877 382.132 111.645 382.7C111.421 383.268 111.105 383.708 110.697 384.02C110.289 384.332 109.821 384.488 109.293 384.488C108.773 384.488 108.305 384.332 107.889 384.02C107.481 383.708 107.161 383.268 106.929 382.7C106.705 382.132 106.593 381.464 106.593 380.696C106.593 379.928 106.705 379.26 106.929 378.692C107.161 378.124 107.481 377.688 107.889 377.384C108.305 377.072 108.773 376.916 109.293 376.916ZM109.293 377.804C108.949 377.804 108.645 377.924 108.381 378.164C108.117 378.396 107.909 378.732 107.757 379.172C107.613 379.604 107.541 380.112 107.541 380.696C107.541 381.28 107.613 381.792 107.757 382.232C107.909 382.664 108.117 383 108.381 383.24C108.645 383.48 108.949 383.6 109.293 383.6C109.645 383.6 109.953 383.48 110.217 383.24C110.481 383 110.685 382.664 110.829 382.232C110.981 381.792 111.057 381.28 111.057 380.696C111.057 380.112 110.981 379.604 110.829 379.172C110.685 378.732 110.481 378.396 110.217 378.164C109.953 377.924 109.645 377.804 109.293 377.804ZM114.345 376.076H115.329V386.948H114.345V376.076ZM120.116 377.636H120.92V379.388C120.92 379.956 120.84 380.52 120.68 381.08C120.52 381.632 120.296 382.156 120.008 382.652C119.728 383.14 119.404 383.576 119.036 383.96C118.668 384.336 118.272 384.632 117.848 384.848L117.26 384.056C117.652 383.864 118.016 383.604 118.352 383.276C118.696 382.94 119 382.56 119.264 382.136C119.528 381.704 119.736 381.256 119.888 380.792C120.04 380.32 120.116 379.852 120.116 379.388V377.636ZM120.308 377.636H121.1V379.388C121.1 379.82 121.168 380.256 121.304 380.696C121.448 381.136 121.648 381.556 121.904 381.956C122.16 382.356 122.456 382.716 122.792 383.036C123.136 383.348 123.5 383.6 123.884 383.792L123.32 384.584C122.896 384.368 122.5 384.08 122.132 383.72C121.764 383.352 121.444 382.936 121.172 382.472C120.9 382.008 120.688 381.512 120.536 380.984C120.384 380.456 120.308 379.924 120.308 379.388V377.636ZM117.644 377.192H123.5V378.02H117.644V377.192ZM124.784 376.076H125.78V386.936H124.784V376.076ZM125.552 380.456H127.556V381.296H125.552V380.456ZM135.823 376.076H136.819V386.924H135.823V376.076ZM136.555 380.48H138.547V381.308H136.555V380.48ZM133.051 377.24H134.023C134.023 378.272 133.855 379.26 133.519 380.204C133.183 381.14 132.655 382.008 131.935 382.808C131.215 383.6 130.267 384.288 129.091 384.872L128.539 384.104C129.547 383.6 130.383 383.012 131.047 382.34C131.719 381.66 132.219 380.908 132.547 380.084C132.883 379.252 133.051 378.356 133.051 377.396V377.24ZM129.043 377.24H133.555V378.068H129.043V377.24ZM139.818 388.28L139.554 387.632C139.93 387.464 140.226 387.236 140.442 386.948C140.658 386.66 140.762 386.332 140.754 385.964L140.634 384.98L141.174 385.784C141.094 385.872 141.006 385.936 140.91 385.976C140.822 386.008 140.726 386.024 140.622 386.024C140.406 386.024 140.218 385.956 140.058 385.82C139.898 385.684 139.818 385.496 139.818 385.256C139.818 385.016 139.898 384.828 140.058 384.692C140.226 384.556 140.422 384.488 140.646 384.488C140.934 384.488 141.158 384.604 141.318 384.836C141.486 385.06 141.57 385.372 141.57 385.772C141.57 386.348 141.41 386.852 141.09 387.284C140.778 387.716 140.354 388.048 139.818 388.28ZM149.945 382.208H150.929V384.908H149.945V382.208ZM150.437 376.784C151.205 376.784 151.885 376.904 152.477 377.144C153.069 377.376 153.533 377.704 153.869 378.128C154.213 378.552 154.385 379.052 154.385 379.628C154.385 380.204 154.213 380.708 153.869 381.14C153.533 381.564 153.069 381.892 152.477 382.124C151.885 382.356 151.205 382.472 150.437 382.472C149.677 382.472 148.997 382.356 148.397 382.124C147.805 381.892 147.341 381.564 147.005 381.14C146.669 380.708 146.501 380.204 146.501 379.628C146.501 379.052 146.669 378.552 147.005 378.128C147.341 377.704 147.805 377.376 148.397 377.144C148.997 376.904 149.677 376.784 150.437 376.784ZM150.437 377.588C149.861 377.588 149.349 377.672 148.901 377.84C148.453 378.008 148.101 378.248 147.845 378.56C147.589 378.864 147.461 379.22 147.461 379.628C147.461 380.036 147.589 380.396 147.845 380.708C148.101 381.02 148.453 381.26 148.901 381.428C149.349 381.596 149.861 381.68 150.437 381.68C151.013 381.68 151.525 381.596 151.973 381.428C152.421 381.26 152.773 381.02 153.029 380.708C153.293 380.396 153.425 380.036 153.425 379.628C153.425 379.22 153.293 378.864 153.029 378.56C152.773 378.248 152.421 378.008 151.973 377.84C151.525 377.672 151.013 377.588 150.437 377.588ZM145.541 384.716H155.381V385.544H145.541V384.716ZM156.58 384.704H166.42V385.544H156.58V384.704ZM157.444 377.168H165.496V377.984H157.444V377.168ZM157.468 381.74H165.472V382.556H157.468V381.74ZM159.124 377.912H160.12V381.836H159.124V377.912ZM162.82 377.912H163.804V381.836H162.82V377.912ZM174.976 376.076H175.96V386.948H174.976V376.076ZM175.732 380.384H177.736V381.224H175.732V380.384ZM168.064 383.492H168.928C169.6 383.492 170.216 383.484 170.776 383.468C171.344 383.444 171.892 383.408 172.42 383.36C172.948 383.304 173.484 383.224 174.028 383.12L174.124 383.936C173.564 384.04 173.016 384.12 172.48 384.176C171.952 384.232 171.4 384.272 170.824 384.296C170.248 384.32 169.616 384.332 168.928 384.332H168.064V383.492ZM168.04 377.084H172.936V380.984H169.048V383.828H168.064V380.156H171.952V377.9H168.04V377.084ZM186.555 376.088H187.551V384.008H186.555V376.088ZM180.579 385.88H187.887V386.696H180.579V385.88ZM180.579 383.204H181.575V386.156H180.579V383.204ZM181.731 376.844C182.275 376.844 182.759 376.956 183.183 377.18C183.607 377.404 183.943 377.72 184.191 378.128C184.439 378.528 184.563 378.988 184.563 379.508C184.563 380.028 184.439 380.492 184.191 380.9C183.943 381.3 183.607 381.616 183.183 381.848C182.759 382.072 182.275 382.184 181.731 382.184C181.195 382.184 180.711 382.072 180.279 381.848C179.855 381.616 179.519 381.3 179.271 380.9C179.023 380.492 178.899 380.028 178.899 379.508C178.899 378.988 179.023 378.528 179.271 378.128C179.519 377.72 179.855 377.404 180.279 377.18C180.711 376.956 181.195 376.844 181.731 376.844ZM181.731 377.708C181.379 377.708 181.063 377.784 180.783 377.936C180.503 378.088 180.279 378.3 180.111 378.572C179.951 378.844 179.871 379.156 179.871 379.508C179.871 379.868 179.951 380.184 180.111 380.456C180.279 380.72 180.503 380.928 180.783 381.08C181.063 381.232 181.379 381.308 181.731 381.308C182.083 381.308 182.399 381.232 182.679 381.08C182.967 380.928 183.191 380.72 183.351 380.456C183.511 380.184 183.591 379.868 183.591 379.508C183.591 379.156 183.511 378.844 183.351 378.572C183.191 378.3 182.967 378.088 182.679 377.936C182.399 377.784 182.083 377.708 181.731 377.708ZM195.093 377.864H195.897V378.332C195.897 378.948 195.769 379.52 195.513 380.048C195.265 380.576 194.913 381.032 194.457 381.416C194.001 381.8 193.469 382.092 192.861 382.292L192.381 381.512C192.917 381.344 193.389 381.104 193.797 380.792C194.205 380.472 194.521 380.1 194.745 379.676C194.977 379.252 195.093 378.804 195.093 378.332V377.864ZM195.261 377.864H196.077V378.332C196.077 378.764 196.185 379.18 196.401 379.58C196.625 379.972 196.937 380.32 197.337 380.624C197.737 380.92 198.201 381.148 198.729 381.308L198.261 382.088C197.661 381.896 197.133 381.616 196.677 381.248C196.229 380.88 195.881 380.448 195.633 379.952C195.385 379.448 195.261 378.908 195.261 378.332V377.864ZM192.681 377.348H198.477V378.152H192.681V377.348ZM195.093 376.028H196.089V377.672H195.093V376.028ZM199.809 376.076H200.805V382.496H199.809V376.076ZM200.529 378.824H202.401V379.652H200.529V378.824ZM193.989 383.012H200.805V386.792H193.989V383.012ZM199.821 383.804H194.961V385.976H199.821V383.804ZM208.304 378.5H211.592V379.316H208.304V378.5ZM208.304 381.932H211.592V382.748H208.304V381.932ZM206.312 376.916C206.84 376.916 207.308 377.072 207.716 377.384C208.124 377.688 208.44 378.124 208.664 378.692C208.896 379.26 209.012 379.928 209.012 380.696C209.012 381.464 208.896 382.132 208.664 382.7C208.44 383.268 208.124 383.708 207.716 384.02C207.308 384.332 206.84 384.488 206.312 384.488C205.792 384.488 205.324 384.332 204.908 384.02C204.5 383.708 204.18 383.268 203.948 382.7C203.724 382.132 203.612 381.464 203.612 380.696C203.612 379.928 203.724 379.26 203.948 378.692C204.18 378.124 204.5 377.688 204.908 377.384C205.324 377.072 205.792 376.916 206.312 376.916ZM206.312 377.804C205.968 377.804 205.664 377.924 205.4 378.164C205.136 378.396 204.928 378.732 204.776 379.172C204.632 379.604 204.56 380.112 204.56 380.696C204.56 381.28 204.632 381.792 204.776 382.232C204.928 382.664 205.136 383 205.4 383.24C205.664 383.48 205.968 383.6 206.312 383.6C206.664 383.6 206.972 383.48 207.236 383.24C207.5 383 207.704 382.664 207.848 382.232C208 381.792 208.076 381.28 208.076 380.696C208.076 380.112 208 379.604 207.848 379.172C207.704 378.732 207.5 378.396 207.236 378.164C206.972 377.924 206.664 377.804 206.312 377.804ZM211.364 376.076H212.348V386.948H211.364V376.076ZM217.135 377.636H217.939V379.388C217.939 379.956 217.859 380.52 217.699 381.08C217.539 381.632 217.315 382.156 217.027 382.652C216.747 383.14 216.423 383.576 216.055 383.96C215.687 384.336 215.291 384.632 214.867 384.848L214.279 384.056C214.671 383.864 215.035 383.604 215.371 383.276C215.715 382.94 216.019 382.56 216.283 382.136C216.547 381.704 216.755 381.256 216.907 380.792C217.059 380.32 217.135 379.852 217.135 379.388V377.636ZM217.327 377.636H218.119V379.388C218.119 379.82 218.187 380.256 218.323 380.696C218.467 381.136 218.667 381.556 218.923 381.956C219.179 382.356 219.475 382.716 219.811 383.036C220.155 383.348 220.519 383.6 220.903 383.792L220.339 384.584C219.915 384.368 219.519 384.08 219.151 383.72C218.783 383.352 218.463 382.936 218.191 382.472C217.919 382.008 217.707 381.512 217.555 380.984C217.403 380.456 217.327 379.924 217.327 379.388V377.636ZM214.663 377.192H220.519V378.02H214.663V377.192ZM221.803 376.076H222.799V386.936H221.803V376.076ZM222.571 380.456H224.575V381.296H222.571V380.456ZM228.17 382.292H238.01V383.12H228.17V382.292ZM232.574 382.796H233.558V386.936H232.574V382.796ZM233.066 376.508C233.826 376.508 234.49 376.608 235.058 376.808C235.626 377 236.07 377.276 236.39 377.636C236.71 377.988 236.87 378.408 236.87 378.896C236.87 379.376 236.71 379.796 236.39 380.156C236.07 380.516 235.626 380.792 235.058 380.984C234.49 381.176 233.826 381.272 233.066 381.272C232.322 381.272 231.662 381.176 231.086 380.984C230.518 380.792 230.074 380.516 229.754 380.156C229.434 379.796 229.274 379.376 229.274 378.896C229.274 378.408 229.434 377.988 229.754 377.636C230.074 377.276 230.518 377 231.086 376.808C231.662 376.608 232.322 376.508 233.066 376.508ZM233.066 377.312C232.522 377.312 232.038 377.376 231.614 377.504C231.198 377.632 230.874 377.816 230.642 378.056C230.41 378.288 230.294 378.564 230.294 378.884C230.294 379.212 230.41 379.496 230.642 379.736C230.874 379.968 231.198 380.148 231.614 380.276C232.038 380.404 232.522 380.468 233.066 380.468C233.626 380.468 234.114 380.404 234.53 380.276C234.946 380.148 235.27 379.968 235.502 379.736C235.734 379.496 235.85 379.212 235.85 378.884C235.85 378.564 235.734 378.288 235.502 378.056C235.27 377.816 234.946 377.632 234.53 377.504C234.114 377.376 233.626 377.312 233.066 377.312ZM240.469 376.592H247.453V377.396H240.469V376.592ZM246.805 376.592H247.789V377.42C247.789 377.876 247.773 378.38 247.741 378.932C247.717 379.476 247.625 380.108 247.465 380.828L246.493 380.72C246.653 380.016 246.745 379.404 246.769 378.884C246.793 378.356 246.805 377.868 246.805 377.42V376.592ZM247.093 378.416V379.124L240.337 379.424L240.205 378.632L247.093 378.416ZM239.233 380.516H249.013V381.32H239.233V380.516ZM240.373 382.34H247.861V384.872H241.381V386.336H240.397V384.128H246.877V383.12H240.373V382.34ZM240.397 386H248.245V386.792H240.397V386ZM258.156 376.088H259.152V382.712H258.156V376.088ZM251.904 383.3H259.152V386.936H258.156V384.128H251.904V383.3ZM250.824 381.284H251.7C252.356 381.284 252.964 381.276 253.524 381.26C254.092 381.244 254.644 381.212 255.18 381.164C255.716 381.108 256.272 381.036 256.848 380.948L256.968 381.764C256.368 381.86 255.792 381.932 255.24 381.98C254.696 382.028 254.136 382.064 253.56 382.088C252.992 382.104 252.372 382.112 251.7 382.112H250.824V381.284ZM250.8 376.724H255.72V379.736H251.796V381.692H250.824V378.956H254.748V377.54H250.8V376.724Z" fill="black"/>
<defs>
<clipPath id="clip0_337_2658">
<rect width="16" height="16" fill="white" transform="translate(75 258)"/>
</clipPath>
<clipPath id="clip1_337_2658">
<rect x="67" y="406" width="121" height="29" rx="6" fill="white"/>
</clipPath>
<clipPath id="clip2_337_2658">
<rect width="16" height="16" fill="white" transform="translate(76 413)"/>
</clipPath>
</defs>
</svg>
