<svg width="16" height="16" viewBox="0 0 16 16" fill="none" xmlns="http://www.w3.org/2000/svg">
<path d="M10.6656 13.9996V12.6664C10.6656 11.9592 10.3847 11.281 9.88463 10.781C9.38458 10.2809 8.70638 10 7.99921 10H3.99964C3.29247 10 2.61426 10.2809 2.11422 10.781C1.61417 11.281 1.33325 11.9592 1.33325 12.6664V13.9996" stroke="#0A0A0A" strokeWidth="1.33333" strokeLinecap="round" strokeLinejoin="round"/>
<path d="M5.99964 7.33277C7.47224 7.33277 8.66602 6.13899 8.66602 4.66638C8.66602 3.19378 7.47224 2 5.99964 2C4.52703 2 3.33325 3.19378 3.33325 4.66638C3.33325 6.13899 4.52703 7.33277 5.99964 7.33277Z" stroke="#0A0A0A" strokeWidth="1.33333" strokeLinecap="round" strokeLinejoin="round"/>
<path d="M14.6665 13.9989V12.6657C14.6661 12.0749 14.4695 11.501 14.1075 11.034C13.7456 10.5671 13.2388 10.2336 12.6667 10.0859" stroke="#0A0A0A" strokeWidth="1.33333" strokeLinecap="round" strokeLinejoin="round"/>
<path d="M10.6667 2.08594C11.2403 2.23279 11.7487 2.56635 12.1117 3.03404C12.4747 3.50173 12.6718 4.07695 12.6718 4.669C12.6718 5.26105 12.4747 5.83626 12.1117 6.30395C11.7487 6.77164 11.2403 7.1052 10.6667 7.25206" stroke="#0A0A0A" strokeWidth="1.33333" strokeLinecap="round" strokeLinejoin="round"/>
</svg>
